<?xml version="1.0" encoding="UTF-8" standalone="no"?>
<svg
   xmlns:dc="http://purl.org/dc/elements/1.1/"
   xmlns:cc="http://creativecommons.org/ns#"
   xmlns:rdf="http://www.w3.org/1999/02/22-rdf-syntax-ns#"
   xmlns:svg="http://www.w3.org/2000/svg"
   xmlns="http://www.w3.org/2000/svg"
   xmlns:sodipodi="http://sodipodi.sourceforge.net/DTD/sodipodi-0.dtd"
   xmlns:inkscape="http://www.inkscape.org/namespaces/inkscape"
   inkscape:version="1.0 (4035a4fb49, 2020-05-01)"
   sodipodi:docname="update-medium.svg"
   id="svg9"
   version="1.1"
   viewBox="0 0 22 22">
  <metadata
     id="metadata13">
    <rdf:RDF>
      <cc:Work
         rdf:about="">
        <dc:format>image/svg+xml</dc:format>
        <dc:type
           rdf:resource="http://purl.org/dc/dcmitype/StillImage" />
      </cc:Work>
    </rdf:RDF>
  </metadata>
  <sodipodi:namedview
     inkscape:document-rotation="0"
     inkscape:current-layer="svg9"
     inkscape:window-maximized="1"
     inkscape:window-y="0"
     inkscape:window-x="0"
     inkscape:cy="8.5856441"
     inkscape:cx="4.2928664"
     inkscape:zoom="19.977759"
     showgrid="false"
     id="namedview11"
     inkscape:window-height="1028"
     inkscape:window-width="1920"
     inkscape:pageshadow="2"
     inkscape:pageopacity="0"
     guidetolerance="10"
     gridtolerance="10"
     objecttolerance="10"
     borderopacity="1"
     bordercolor="#666666"
     pagecolor="#ffffff" />
  <defs
     id="defs3051">
    <style
       id="current-color-scheme"
       type="text/css">
      .ColorScheme-Text {
        color:#232629;
      }
      .ColorScheme-NeutralText {
        color:#f67400;
      }
      </style>
  </defs>
  <g
     id="g7"
     transform="translate(0,-1030.3622)">
    <path
       sodipodi:nodetypes="sccccccsccscccccccccccccccccccccc"
       inkscape:connector-curvature="0"
       class="ColorScheme-Text"
       id="path6941"
       transform="translate(0,1030.3622)"
       d="M 11.126953,3.0019531 C 9.2851775,2.9719906 7.4335432,3.5755063 5.921875,4.8164062 2.8985906,7.2983061 2.1145626,11.6125 4.0703125,15 L 3.5574385,15.339836 5.5039062,16.482422 5.8027344,14 5.3218931,14.307803 C 3.6073932,11.338203 4.3246263,8.1499367 6.9750197,5.9742369 9.6254133,3.798537 12.778402,3.8925542 15.357019,6.152754 L 16.271484,4.984375 C 14.800746,3.6952251 12.968729,3.0319156 11.126953,3.0019531 Z M 16.494141,5.5195312 16.195312,8 16.614041,7.7242293 c 0.896607,1.5529689 1.06712,2.6829767 0.713279,4.3300477 0.320602,0.168764 1.130815,0.789823 1.393383,1.035567 C 19.259064,11.093388 19.024658,8.89995 17.927734,7 L 18.34451,6.6601638 Z M 11,6 7,10 h 2 v 5 h 3.144531 C 12.303295,14.3945 12.599063,13.848272 13,13.388672 V 10 h 2 z m -4.3589723,9.881232 -0.9144652,1.136346 c 2.0663121,1.81119 4.8448035,2.380136 7.3632815,1.701172 -0.245353,-0.262183 -0.480605,-0.975283 -0.649221,-1.295332 -2.106154,0.453549 -4.0843759,-0.03877 -5.7995953,-1.542186 z"
       style="color:#232629;opacity:1;fill:#d4e7ea;fill-opacity:1;stroke:none" />
    <path
       id="path5"
       d="m 19,1046.3622 a 2.9999907,2.9999907 0 0 1 -2.99999,3 2.9999907,2.9999907 0 0 1 -2.999991,-3 2.9999907,2.9999907 0 0 1 2.999991,-3 2.9999907,2.9999907 0 0 1 2.99999,3 z"
       class="ColorScheme-NeutralText"
       style="fill:currentColor;fill-opacity:1;stroke:none" />
  </g>
</svg>
