<?xml version="1.0" encoding="UTF-8" standalone="no"?>
<svg
   xmlns:dc="http://purl.org/dc/elements/1.1/"
   xmlns:cc="http://creativecommons.org/ns#"
   xmlns:rdf="http://www.w3.org/1999/02/22-rdf-syntax-ns#"
   xmlns:svg="http://www.w3.org/2000/svg"
   xmlns="http://www.w3.org/2000/svg"
   xmlns:sodipodi="http://sodipodi.sourceforge.net/DTD/sodipodi-0.dtd"
   xmlns:inkscape="http://www.inkscape.org/namespaces/inkscape"
   inkscape:version="1.0 (4035a4fb49, 2020-05-01)"
   sodipodi:docname="update-high.svg"
   id="svg8"
   version="1.1"
   viewBox="0 0 22 22">
  <metadata
     id="metadata12">
    <rdf:RDF>
      <cc:Work
         rdf:about="">
        <dc:format>image/svg+xml</dc:format>
        <dc:type
           rdf:resource="http://purl.org/dc/dcmitype/StillImage" />
      </cc:Work>
    </rdf:RDF>
  </metadata>
  <sodipodi:namedview
     inkscape:document-rotation="0"
     inkscape:current-layer="svg8"
     inkscape:window-maximized="1"
     inkscape:window-y="0"
     inkscape:window-x="0"
     inkscape:cy="0.25802919"
     inkscape:cx="1.6462131"
     inkscape:zoom="14.126409"
     showgrid="false"
     id="namedview10"
     inkscape:window-height="1028"
     inkscape:window-width="1920"
     inkscape:pageshadow="2"
     inkscape:pageopacity="0"
     guidetolerance="10"
     gridtolerance="10"
     objecttolerance="10"
     borderopacity="1"
     bordercolor="#666666"
     pagecolor="#ffffff" />
  <defs
     id="defs3051">
    <style
       id="current-color-scheme"
       type="text/css">
      .ColorScheme-Text {
        color:#232629;
      }
      .ColorScheme-NegativeText {
        color:#da4453;
      }
      </style>
  </defs>
  <path
     id="path6"
     class="ColorScheme-NegativeText"
     d="M 16 13 A 2.9999907 2.9999907 0 0 0 13 16 A 2.9999907 2.9999907 0 0 0 16 19 A 2.9999907 2.9999907 0 0 0 19 16 A 2.9999907 2.9999907 0 0 0 16 13 z "
     style="fill:currentColor;fill-opacity:1;stroke:none" />
  <path
     sodipodi:nodetypes="sccccccsccscccccccccccccccccccccc"
     inkscape:connector-curvature="0"
     class="ColorScheme-Text"
     id="path6941"
     d="M 11.179448,3.1124078 C 9.3376725,3.0824453 7.4860382,3.685961 5.97437,4.9268609 2.9510855,7.4087608 2.1670576,11.722955 4.1228075,15.110455 l -0.5128741,0.339836 1.9464678,1.142586 0.2988282,-2.482422 -0.4808413,0.307803 C 3.6598881,11.448658 4.3771213,8.2603914 7.0275147,6.0846916 9.6779083,3.9089917 12.830897,4.0030089 15.409514,6.2632087 l 0.914465,-1.168379 C 14.853241,3.8056798 13.021224,3.1423703 11.179448,3.1124078 Z m 5.367188,2.5175781 -0.298829,2.4804688 0.418729,-0.2757707 c 0.896607,1.5529689 1.06712,2.682977 0.713279,4.330048 0.320602,0.168764 1.130815,0.789823 1.393383,1.035567 0.538361,-1.996456 0.303955,-4.1898943 -0.792969,-6.0898443 l 0.416776,-0.3398362 z m -5.494141,0.4804688 -4,4.0000003 h 2 v 5 h 3.144531 c 0.158764,-0.6055 0.454532,-1.151728 0.855469,-1.611328 v -3.388672 h 2 z M 6.6935227,15.991687 5.7790575,17.128033 c 2.0663121,1.81119 4.8448035,2.380136 7.3632815,1.701172 -0.245353,-0.262183 -0.480605,-0.975283 -0.649221,-1.295332 -2.106154,0.453549 -4.0843759,-0.03877 -5.7995953,-1.542186 z"
     style="color:#232629;opacity:1;fill:#d4e7ea;fill-opacity:1;stroke:none" />
</svg>
