<?xml version="1.0" encoding="UTF-8" standalone="no"?>
<svg
   xmlns:dc="http://purl.org/dc/elements/1.1/"
   xmlns:cc="http://creativecommons.org/ns#"
   xmlns:rdf="http://www.w3.org/1999/02/22-rdf-syntax-ns#"
   xmlns:svg="http://www.w3.org/2000/svg"
   xmlns="http://www.w3.org/2000/svg"
   xmlns:sodipodi="http://sodipodi.sourceforge.net/DTD/sodipodi-0.dtd"
   xmlns:inkscape="http://www.inkscape.org/namespaces/inkscape"
   inkscape:version="1.0 (4035a4fb49, 2020-05-01)"
   sodipodi:docname="update-low.svg"
   id="svg8"
   version="1.1"
   viewBox="0 0 22 22">
  <metadata
     id="metadata12">
    <rdf:RDF>
      <cc:Work
         rdf:about="">
        <dc:format>image/svg+xml</dc:format>
        <dc:type
           rdf:resource="http://purl.org/dc/dcmitype/StillImage" />
      </cc:Work>
    </rdf:RDF>
  </metadata>
  <sodipodi:namedview
     inkscape:document-rotation="0"
     inkscape:current-layer="svg8"
     inkscape:window-maximized="1"
     inkscape:window-y="0"
     inkscape:window-x="0"
     inkscape:cy="3.9908817"
     inkscape:cx="6.652068"
     inkscape:zoom="19.977759"
     showgrid="false"
     id="namedview10"
     inkscape:window-height="1028"
     inkscape:window-width="1920"
     inkscape:pageshadow="2"
     inkscape:pageopacity="0"
     guidetolerance="10"
     gridtolerance="10"
     objecttolerance="10"
     borderopacity="1"
     bordercolor="#666666"
     pagecolor="#ffffff" />
  <defs
     id="defs3051">
    <style
       id="current-color-scheme"
       type="text/css">
      .ColorScheme-Text {
        color:#232629;
      }
      .ColorScheme-Highlight {
        color:#3daee9;
      }
      </style>
  </defs>
  <g
     id="g6"
     transform="translate(0,-1030.3622)">
    <path
       id="path7376"
       d="m 19,1046.3622 a 2.9999907,2.9999907 0 0 1 -2.99999,3 2.9999907,2.9999907 0 0 1 -2.999991,-3 2.9999907,2.9999907 0 0 1 2.999991,-3 2.9999907,2.9999907 0 0 1 2.99999,3 z"
       class="ColorScheme-Highlight"
       style="fill:currentColor;fill-opacity:1;stroke:none" />
  </g>
  <path
     sodipodi:nodetypes="sccccccsccscccccccccccccccccccccc"
     inkscape:connector-curvature="0"
     class="ColorScheme-Text"
     id="path6941"
     d="M 11.243514,3.1444406 C 9.4017381,3.1144781 7.5501038,3.7179938 6.0384356,4.9588937 3.0151511,7.4407936 2.2311231,11.754988 4.1868731,15.142488 L 3.673999,15.482324 5.6204668,16.62491 5.919295,14.142488 5.4384537,14.450291 C 3.7239537,11.480691 4.4411869,8.2924246 7.0915803,6.1167244 9.7419739,3.9410245 12.894963,4.0350417 15.47358,6.2952415 l 0.914465,-1.168379 C 14.917307,3.8377126 13.08529,3.1744031 11.243514,3.1444406 Z m 5.367188,2.5175781 -0.298829,2.4804689 0.418729,-0.2757708 c 0.896607,1.5529688 1.06712,2.6829772 0.713279,4.3300482 0.320602,0.168764 1.130815,0.789823 1.393383,1.035567 0.538361,-1.996456 0.303955,-4.1898944 -0.792969,-6.0898445 L 18.461071,6.8026513 Z M 11.116561,6.1424875 7.1165606,10.142488 h 2 v 5 h 3.1445314 c 0.158764,-0.6055 0.454532,-1.151728 0.855469,-1.611328 v -3.388672 h 2 z M 6.7575883,16.02372 5.8431231,17.160066 c 2.0663121,1.81119 4.8448039,2.380136 7.3632819,1.701172 C 12.961052,18.599055 12.7258,17.885955 12.557184,17.565906 10.45103,18.019455 8.4728077,17.527136 6.7575883,16.02372 Z"
     style="color:#232629;opacity:1;fill:#d4e7ea;fill-opacity:1;stroke:none" />
</svg>
