<?xml version="1.0" encoding="UTF-8" standalone="no"?>
<svg
   xmlns:dc="http://purl.org/dc/elements/1.1/"
   xmlns:cc="http://creativecommons.org/ns#"
   xmlns:rdf="http://www.w3.org/1999/02/22-rdf-syntax-ns#"
   xmlns:svg="http://www.w3.org/2000/svg"
   xmlns="http://www.w3.org/2000/svg"
   xmlns:sodipodi="http://sodipodi.sourceforge.net/DTD/sodipodi-0.dtd"
   xmlns:inkscape="http://www.inkscape.org/namespaces/inkscape"
   inkscape:version="1.0 (4035a4fb49, 2020-05-01)"
   height="15.999999"
   width="13.291434"
   sodipodi:docname="redshift-status-on.svg"
   id="svg30"
   xml:space="preserve"
   enable-background="new 0 0 1000 1000"
   viewBox="0 0 13.291434 15.999999"
   y="0px"
   x="0px"
   version="1.1"><metadata
   id="metadata18"><rdf:RDF><cc:Work
       rdf:about=""><dc:format>image/svg+xml</dc:format><dc:type
         rdf:resource="http://purl.org/dc/dcmitype/StillImage" /></cc:Work></rdf:RDF></metadata><defs
   id="defs34" /><sodipodi:namedview
   inkscape:document-rotation="0"
   inkscape:current-layer="svg30"
   inkscape:window-maximized="1"
   inkscape:window-y="0"
   inkscape:window-x="0"
   inkscape:cy="7.0264441"
   inkscape:cx="-3.7038142"
   inkscape:zoom="25.51367"
   showgrid="false"
   id="namedview32"
   inkscape:window-height="1017"
   inkscape:window-width="1920"
   inkscape:pageshadow="2"
   inkscape:pageopacity="0"
   guidetolerance="10"
   gridtolerance="10"
   objecttolerance="10"
   borderopacity="1"
   bordercolor="#666666"
   pagecolor="#ffffff" />
<g
   transform="matrix(0.01632453,0,0,0.01632653,-1.5162379,-0.1632653)"
   id="g28"><path
     inkscape:connector-curvature="0"
     style="fill:#008864;fill-opacity:1"
     id="path4"
     d="M 586.9,809.2 H 413 c -13.5,0 -24.4,10.9 -24.4,24.4 0,13.5 10.9,24.4 24.4,24.4 h 173.9 c 13.5,0 24.4,-10.9 24.4,-24.4 0,-13.5 -11,-24.4 -24.4,-24.4 z" /><path
     inkscape:connector-curvature="0"
     style="fill:#008864;fill-opacity:1"
     id="path6"
     d="m 455.2,951.3 c 3.3,21.9 22,38.7 44.8,38.7 22.8,0 41.5,-16.8 44.8,-38.7 29.8,-1.8 53.6,-26.3 53.6,-56.6 H 401.5 c 0,30.3 23.8,54.8 53.7,56.6 z" /><path
     inkscape:connector-curvature="0"
     style="fill:#d3dae3;fill-opacity:1"
     id="path8"
     d="m 500,150.7 c 18,0 32.5,-14.6 32.5,-32.5 V 42.5 C 532.5,24.5 518,10 500,10 482,10 467.5,24.6 467.5,42.5 v 75.6 c 0,18 14.5,32.6 32.5,32.6 z" /><path
     inkscape:connector-curvature="0"
     style="fill:#d3dae3;fill-opacity:1"
     id="path10"
     d="m 286.7,198 c 6.4,8.8 16.3,13.4 26.4,13.4 6.6,0 13.3,-2 19.1,-6.2 14.5,-10.5 17.8,-30.9 7.2,-45.4 L 294.9,98.6 C 284.3,84.1 264,80.8 249.5,91.4 c -14.5,10.5 -17.7,30.9 -7.2,45.4 z" /><path
     inkscape:connector-curvature="0"
     style="fill:#d3dae3;fill-opacity:1"
     id="path12"
     d="m 713.3,674.6 c -10.5,-14.5 -30.9,-17.7 -45.4,-7.2 -14.5,10.6 -17.7,30.9 -7.2,45.4 l 44.5,61.2 c 6.3,8.7 16.3,13.4 26.3,13.4 6.6,0 13.3,-2 19.1,-6.2 14.5,-10.6 17.7,-30.9 7.2,-45.4 z" /><path
     inkscape:connector-curvature="0"
     style="fill:#d3dae3;fill-opacity:1"
     id="path14"
     d="m 207.5,307.1 -72,-23.4 c -17.2,-5.6 -35.4,3.8 -41,20.9 -5.6,17.1 3.8,35.4 20.9,41 l 72,23.4 c 3.4,1.1 6.7,1.6 10.1,1.6 13.7,0 26.4,-8.7 30.9,-22.5 5.5,-17.1 -3.8,-35.5 -20.9,-41 z" /><path
     inkscape:connector-curvature="0"
     style="fill:#d3dae3;fill-opacity:1"
     id="path16"
     d="m 884.6,527.1 -71.9,-23.4 c -17.1,-5.5 -35.4,3.8 -41,20.9 -5.6,17.1 3.8,35.4 20.9,41 l 72,23.4 c 3.3,1.1 6.7,1.6 10,1.6 13.7,0 26.4,-8.7 30.9,-22.5 5.5,-17.1 -3.8,-35.4 -20.9,-41 z" /><path
     inkscape:connector-curvature="0"
     style="fill:#d3dae3;fill-opacity:1"
     id="path18"
     d="m 187.4,503.7 -72,23.3 c -17.1,5.5 -26.4,23.9 -20.9,41 4.4,13.7 17.2,22.5 30.9,22.5 3.3,0 6.7,-0.5 10,-1.6 l 72,-23.3 c 17.1,-5.5 26.5,-23.9 20.9,-41 -5.5,-17 -23.7,-26.4 -40.9,-20.9 z" /><path
     inkscape:connector-curvature="0"
     style="fill:#d3dae3;fill-opacity:1"
     id="path20"
     d="m 802.6,370.5 c 3.3,0 6.7,-0.5 10,-1.6 l 71.9,-23.4 c 17.1,-5.6 26.4,-23.9 20.9,-41 -5.6,-17.1 -24,-26.4 -41,-20.9 l -72,23.4 c -17.1,5.6 -26.4,23.9 -20.9,41 4.7,13.8 17.4,22.5 31.1,22.5 z" /><path
     inkscape:connector-curvature="0"
     style="fill:#d3dae3;fill-opacity:1"
     id="path22"
     d="m 286.7,674.6 -44.5,61.2 c -10.6,14.5 -7.4,34.9 7.2,45.4 5.7,4.2 12.4,6.2 19.1,6.2 10.1,0 20,-4.6 26.3,-13.4 l 44.5,-61.2 c 10.6,-14.5 7.4,-34.9 -7.2,-45.4 -14.5,-10.6 -34.9,-7.3 -45.4,7.2 z" /><path
     inkscape:connector-curvature="0"
     style="fill:#d3dae3;fill-opacity:1"
     id="path24"
     d="m 705.2,98.6 -44.5,61.2 c -10.5,14.5 -7.3,34.9 7.2,45.4 5.8,4.2 12.5,6.2 19.1,6.2 10.1,0 20,-4.6 26.4,-13.4 l 44.5,-61.2 c 10.5,-14.5 7.3,-34.9 -7.2,-45.4 -14.7,-10.6 -34.9,-7.3 -45.5,7.2 z" /><path
     inkscape:connector-curvature="0"
     style="fill:#d3dae3;fill-opacity:1"
     id="path26"
     d="M 734.8,437.5 C 734.8,307.8 629.7,202.6 500,202.6 c -129.7,0 -234.9,105.2 -234.9,234.9 0,54.7 18.8,105 50.3,144.9 27.6,35 53.6,73.1 76.3,111.5 v 78 H 607 V 696 c 22.4,-37.3 51.4,-80.4 77.5,-113.6 31.5,-39.9 50.3,-90.1 50.3,-144.9 z" /></g>
</svg>
