<?xml version="1.0" encoding="UTF-8" standalone="no"?>
<svg
   xmlns:dc="http://purl.org/dc/elements/1.1/"
   xmlns:cc="http://creativecommons.org/ns#"
   xmlns:rdf="http://www.w3.org/1999/02/22-rdf-syntax-ns#"
   xmlns:svg="http://www.w3.org/2000/svg"
   xmlns="http://www.w3.org/2000/svg"
   xmlns:sodipodi="http://sodipodi.sourceforge.net/DTD/sodipodi-0.dtd"
   xmlns:inkscape="http://www.inkscape.org/namespaces/inkscape"
   inkscape:version="1.0 (4035a4fb49, 2020-05-01)"
   height="15.999999"
   width="13.291434"
   sodipodi:docname="redshift-status-off.svg"
   id="svg30"
   xml:space="preserve"
   enable-background="new 0 0 1000 1000"
   viewBox="0 0 13.291434 15.999999"
   y="0px"
   x="0px"
   version="1.1"><metadata
   id="metadata9"><rdf:RDF><cc:Work
       rdf:about=""><dc:format>image/svg+xml</dc:format><dc:type
         rdf:resource="http://purl.org/dc/dcmitype/StillImage" /></cc:Work></rdf:RDF></metadata><defs
   id="defs34" /><sodipodi:namedview
   inkscape:document-rotation="0"
   inkscape:current-layer="svg30"
   inkscape:window-maximized="1"
   inkscape:window-y="0"
   inkscape:window-x="0"
   inkscape:cy="7.0264441"
   inkscape:cx="-12.107261"
   inkscape:zoom="25.51367"
   showgrid="false"
   id="namedview32"
   inkscape:window-height="1017"
   inkscape:window-width="1920"
   inkscape:pageshadow="2"
   inkscape:pageopacity="0"
   guidetolerance="10"
   gridtolerance="10"
   objecttolerance="10"
   borderopacity="1"
   bordercolor="#666666"
   pagecolor="#ffffff" />
<g
   transform="matrix(0.01632453,0,0,0.01632653,-1.5162379,-0.1632653)"
   id="g28"><path
     inkscape:connector-curvature="0"
     style="fill:#008864;fill-opacity:1"
     id="path4"
     d="M 586.9,809.2 H 413 c -13.5,0 -24.4,10.9 -24.4,24.4 0,13.5 10.9,24.4 24.4,24.4 h 173.9 c 13.5,0 24.4,-10.9 24.4,-24.4 0,-13.5 -11,-24.4 -24.4,-24.4 z" /><path
     inkscape:connector-curvature="0"
     style="fill:#008864;fill-opacity:1"
     id="path6"
     d="m 455.2,951.3 c 3.3,21.9 22,38.7 44.8,38.7 22.8,0 41.5,-16.8 44.8,-38.7 29.8,-1.8 53.6,-26.3 53.6,-56.6 H 401.5 c 0,30.3 23.8,54.8 53.7,56.6 z" /><path
     inkscape:connector-curvature="0"
     style="fill:#d3dae3;fill-opacity:1;opacity:0.60000001"
     id="path26"
     d="M 734.8,437.5 C 734.8,307.8 629.7,202.6 500,202.6 c -129.7,0 -234.9,105.2 -234.9,234.9 0,54.7 18.8,105 50.3,144.9 27.6,35 53.6,73.1 76.3,111.5 v 78 H 607 V 696 c 22.4,-37.3 51.4,-80.4 77.5,-113.6 31.5,-39.9 50.3,-90.1 50.3,-144.9 z" /></g>
</svg>
