<?xml version="1.0" encoding="UTF-8" standalone="no"?>
<svg
   xmlns:dc="http://purl.org/dc/elements/1.1/"
   xmlns:cc="http://creativecommons.org/ns#"
   xmlns:rdf="http://www.w3.org/1999/02/22-rdf-syntax-ns#"
   xmlns:svg="http://www.w3.org/2000/svg"
   xmlns="http://www.w3.org/2000/svg"
   xmlns:xlink="http://www.w3.org/1999/xlink"
   xmlns:sodipodi="http://sodipodi.sourceforge.net/DTD/sodipodi-0.dtd"
   xmlns:inkscape="http://www.inkscape.org/namespaces/inkscape"
   viewBox="0 0 22 22"
   version="1.1"
   id="svg6"
   sodipodi:docname="compass.svg"
   inkscape:version="1.0.2 (e86c870879, 2021-01-15)">
  <metadata
     id="metadata10">
    <rdf:RDF>
      <cc:Work
         rdf:about="">
        <dc:format>image/svg+xml</dc:format>
        <dc:type
           rdf:resource="http://purl.org/dc/dcmitype/StillImage" />
      </cc:Work>
    </rdf:RDF>
  </metadata>
  <sodipodi:namedview
     pagecolor="#ffffff"
     bordercolor="#666666"
     borderopacity="1"
     objecttolerance="10"
     gridtolerance="10"
     guidetolerance="10"
     inkscape:pageopacity="0"
     inkscape:pageshadow="2"
     inkscape:window-width="1920"
     inkscape:window-height="1007"
     id="namedview8"
     showgrid="true"
     inkscape:zoom="14.272728"
     inkscape:cx="9.577722"
     inkscape:cy="10.422221"
     inkscape:window-x="0"
     inkscape:window-y="0"
     inkscape:window-maximized="1"
     inkscape:current-layer="svg6"
     inkscape:document-rotation="0">
    <inkscape:grid
       type="xygrid"
       id="grid862" />
  </sodipodi:namedview>
  <defs
     id="defs3051">
    <style
       type="text/css"
       id="current-color-scheme" />
    <radialGradient
       inkscape:collect="always"
       xlink:href="#linearGradient960"
       id="radialGradient962"
       cx="16"
       cy="16"
       fx="16"
       fy="16"
       r="11"
       gradientUnits="userSpaceOnUse"
       gradientTransform="translate(-5.0000002,-5.0000027)" />
    <linearGradient
       inkscape:collect="always"
       id="linearGradient960">
      <stop
         style="stop-color:#008080;stop-opacity:1;"
         offset="0"
         id="stop956" />
      <stop
         style="stop-color:#008080;stop-opacity:0;"
         offset="1"
         id="stop958" />
    </linearGradient>
  </defs>
  <path
     style="fill:url(#radialGradient962);fill-opacity:1;stroke-width:0.999986;enable-background:new"
     d="M 11.000001,0 C 4.9305767,0 0,4.9305786 0,10.999999 0,17.06942 4.9305767,22.000001 11.000001,22 17.06942,22 22.000002,17.06942 22,10.999999 22,4.9305786 17.06942,0 11.000001,0 Z"
     id="path24"
     inkscape:connector-curvature="0" />
  <g
     id="g6"
     transform="matrix(0.69,0,0,0.69,4,3.8025)">
    <path
       d="M 5.4,14.6 12.3,12.4 14.5,5.5 7.6,7.7 Z M 9.2,9.2 11.4,8.5 10.7,10.7 8.5,11.4 Z"
       id="path2"
       style="fill:#1a1a1a" />
    <path
       d="M 10.144928,0.28623188 C 4.5652173,0.28623188 0,4.8514492 0,10.43116 c 0,5.579709 4.5652173,10.144927 10.144928,10.144927 5.579709,0 10.144927,-4.565218 10.144927,-10.144927 0,-5.5797108 -4.565218,-10.14492812 -10.144927,-10.14492812 z m 0,18.26086912 c -4.4637687,0 -8.1159425,-3.652174 -8.1159425,-8.115941 0,-4.4637688 3.6521738,-8.1159427 8.1159425,-8.1159427 4.463767,0 8.115941,3.6521739 8.115941,8.1159427 0,4.463767 -3.652174,8.115941 -8.115941,8.115941 z"
       id="path4-3"
       style="fill:#1a1a1a;stroke-width:1.0145" />
  </g>
</svg>
