<?xml version="1.0" encoding="UTF-8" standalone="no"?>
<svg
   xmlns:dc="http://purl.org/dc/elements/1.1/"
   xmlns:cc="http://creativecommons.org/ns#"
   xmlns:rdf="http://www.w3.org/1999/02/22-rdf-syntax-ns#"
   xmlns:svg="http://www.w3.org/2000/svg"
   xmlns="http://www.w3.org/2000/svg"
   xmlns:sodipodi="http://sodipodi.sourceforge.net/DTD/sodipodi-0.dtd"
   xmlns:inkscape="http://www.inkscape.org/namespaces/inkscape"
   inkscape:version="1.0 (4035a4fb49, 2020-05-01)"
   sodipodi:docname="drive-partition.svg"
   id="svg6"
   version="1.1"
   viewBox="0 0 22 22">
  <metadata
     id="metadata10">
    <rdf:RDF>
      <cc:Work
         rdf:about="">
        <dc:format>image/svg+xml</dc:format>
        <dc:type
           rdf:resource="http://purl.org/dc/dcmitype/StillImage" />
      </cc:Work>
    </rdf:RDF>
  </metadata>
  <sodipodi:namedview
     inkscape:document-rotation="0"
     inkscape:current-layer="svg6"
     inkscape:window-maximized="1"
     inkscape:window-y="0"
     inkscape:window-x="0"
     inkscape:cy="11.186441"
     inkscape:cx="-22.466102"
     inkscape:zoom="12.813132"
     showgrid="false"
     id="namedview8"
     inkscape:window-height="1017"
     inkscape:window-width="1920"
     inkscape:pageshadow="2"
     inkscape:pageopacity="0"
     guidetolerance="10"
     gridtolerance="10"
     objecttolerance="10"
     borderopacity="1"
     bordercolor="#666666"
     pagecolor="#ffffff" />
  <defs
     id="defs3051">
    <style
       id="current-color-scheme"
       type="text/css">
      .ColorScheme-Text {
        color:#eff0f1;
      }
      </style>
  </defs>
  <path
     id="path4"
     class="ColorScheme-Text"
     d="M 11 3 C 6.568 3 3 6.568 3 11 C 3 15.432 6.568 19 11 19 C 15.432 19 19 15.432 19 11 C 19 6.568 15.432 3 11 3 z M 11 4 L 11 11 L 18 10.992188 L 18 11 C 18 14.878 14.878 18 11 18 C 7.122 18 4 14.878 4 11 C 4 7.122 7.122 4 11 4 z "
     style="fill:#008864;fill-opacity:1;stroke:none" />
  <path
     inkscape:connector-curvature="0"
     style="fill:#008864;fill-opacity:1;stroke-width:0.02040816"
     id="path8"
     d="m 11,1.4437357 c 5.251016,0 9.563263,4.2510201 9.563263,9.5632653 0,5.312241 -4.312247,9.499999 -9.563263,9.499999 -5.2510179,0 -9.563267,-4.248984 -9.563267,-9.499999 0,-5.24898 4.3142851,-9.5632653 9.563267,-9.5632653 M 11,1.007 C 5.5000001,1.007 1,5.5070003 1,11.007001 1,16.507 5.5000001,21.007 11,21.007 c 5.5,0 10,-4.5 10,-9.999999 C 21,5.5070003 16.5,1.007 11,1.007 Z" />
</svg>
