<?xml version="1.0" encoding="UTF-8" standalone="no"?>
<svg
   viewBox="0 0 22 22"
   version="1.1"
   id="svg6"
   sodipodi:docname="audio-volume-medium.svg"
   inkscape:version="1.1.2 (0a00cf5339, 2022-02-04)"
   xmlns:inkscape="http://www.inkscape.org/namespaces/inkscape"
   xmlns:sodipodi="http://sodipodi.sourceforge.net/DTD/sodipodi-0.dtd"
   xmlns="http://www.w3.org/2000/svg"
   xmlns:svg="http://www.w3.org/2000/svg">
  <sodipodi:namedview
     id="namedview8"
     pagecolor="#ffffff"
     bordercolor="#666666"
     borderopacity="1.0"
     inkscape:pageshadow="2"
     inkscape:pageopacity="0.0"
     inkscape:pagecheckerboard="0"
     showgrid="false"
     inkscape:zoom="61.256147"
     inkscape:cx="15.092363"
     inkscape:cy="11.329475"
     inkscape:window-width="1920"
     inkscape:window-height="1030"
     inkscape:window-x="0"
     inkscape:window-y="0"
     inkscape:window-maximized="1"
     inkscape:current-layer="svg6" />
  <defs
     id="defs3051">
    <style
       type="text/css"
       id="current-color-scheme">
      .ColorScheme-Text {
        color:#eff0f1;
      }
      </style>
    <filter
       style="color-interpolation-filters:sRGB;"
       inkscape:label="Colorize"
       id="filter1056"
       x="0"
       y="0"
       width="1"
       height="1">
      <feComposite
         in2="SourceGraphic"
         operator="arithmetic"
         k1="1.93251"
         k2="1"
         result="composite1"
         id="feComposite1042" />
      <feColorMatrix
         in="composite1"
         values="1"
         type="saturate"
         result="colormatrix1"
         id="feColorMatrix1044" />
      <feFlood
         flood-opacity="0.721569"
         flood-color="rgb(37,94,111)"
         result="flood1"
         id="feFlood1046" />
      <feBlend
         in="flood1"
         in2="colormatrix1"
         mode="multiply"
         result="blend1"
         id="feBlend1048" />
      <feBlend
         in2="blend1"
         mode="screen"
         result="blend2"
         id="feBlend1050" />
      <feColorMatrix
         in="blend2"
         values="1"
         type="saturate"
         result="colormatrix2"
         id="feColorMatrix1052" />
      <feComposite
         in="colormatrix2"
         in2="SourceGraphic"
         operator="in"
         k2="1"
         result="composite2"
         id="feComposite1054" />
    </filter>
    <filter
       style="color-interpolation-filters:sRGB;"
       inkscape:label="Lightness-Contrast"
       id="filter376"
       x="0"
       y="0"
       width="1"
       height="1">
      <feColorMatrix
         values="2.23719 0 0 0.212801 -0.618595 0 2.23719 0 0.212801 -0.618595 0 0 2.23719 0.212801 -0.618595 0 0 0 1 0"
         id="feColorMatrix374"
         result="fbSourceGraphic" />
      <feColorMatrix
         result="fbSourceGraphicAlpha"
         in="fbSourceGraphic"
         values="0 0 0 -1 0 0 0 0 -1 0 0 0 0 -1 0 0 0 0 1 0"
         id="feColorMatrix564" />
      <feColorMatrix
         id="feColorMatrix566"
         type="hueRotate"
         values="358"
         result="color1"
         in="fbSourceGraphic" />
      <feColorMatrix
         id="feColorMatrix568"
         type="saturate"
         values="0.6"
         result="fbSourceGraphic" />
      <feColorMatrix
         result="fbSourceGraphicAlpha"
         in="fbSourceGraphic"
         values="0 0 0 -1 0 0 0 0 -1 0 0 0 0 -1 0 0 0 0 1 0"
         id="feColorMatrix1855" />
      <feColorMatrix
         id="feColorMatrix1857"
         values="1.83105 0 0 0.170319 -0.415527 0 1.83105 0 0.170319 -0.415527 0 0 1.83105 0.170319 -0.415527 0 0 0 1 0"
         in="fbSourceGraphic" />
    </filter>
  </defs>
  <path
     style="fill:currentColor;fill-opacity:1;stroke:none;filter:url(#filter1056)"
     d="M 10.988281,3 6,7.9902344 V 8 v 1 4 1 0.0098 L 10.988281,19 H 12 V 18.597656 3.4023438 3 Z M 3,8 v 1 4 1 H 5 V 13 9 8 Z"
     id="path4226"
     class="ColorScheme-Text"
     sodipodi:nodetypes="cccccccccccccccccccccc" />
  <path
     class="ColorScheme-NegativeText"
     d="m 21.614559,11.688623 a 4,4 0 0 0 -4,-4.0000002 4,4 0 0 0 -2.449219,0.84375 l -0.0039,-0.00391 -0.0332,0.033203 a 4,4 0 0 0 -0.66211,0.662109 l -0.01172,0.011719 0.002,0.00195 a 4,4 0 0 0 -0.841851,2.4511792 4,4 0 0 0 4,4 4,4 0 0 0 2.449219,-0.84375 l 0.0039,0.0039 0.0332,-0.0332 a 4,4 0 0 0 0.662109,-0.662109 l 0.01172,-0.01172 -0.002,-0.002 a 4,4 0 0 0 0.841852,-2.451121 z m -1,0 a 3,3 0 0 1 -0.556641,1.736328 L 15.880184,9.2472168 a 3,3 0 0 1 1.734375,-0.558594 3,3 0 0 1 3,3.0000002 z m -1.265625,2.441406 a 3,3 0 0 1 -1.734375,0.558594 3,3 0 0 1 -3,-3 3,3 0 0 1 0.556641,-1.7363282 z"
     fill="currentColor"
     id="path3"
     style="color:#da4453;filter:url(#filter376)" />
</svg>
