<?xml version="1.0" encoding="UTF-8" standalone="no"?>
<svg
   xmlns:dc="http://purl.org/dc/elements/1.1/"
   xmlns:cc="http://creativecommons.org/ns#"
   xmlns:rdf="http://www.w3.org/1999/02/22-rdf-syntax-ns#"
   xmlns:svg="http://www.w3.org/2000/svg"
   xmlns="http://www.w3.org/2000/svg"
   xmlns:xlink="http://www.w3.org/1999/xlink"
   xmlns:sodipodi="http://sodipodi.sourceforge.net/DTD/sodipodi-0.dtd"
   xmlns:inkscape="http://www.inkscape.org/namespaces/inkscape"
   viewBox="0 0 64 64"
   version="1.1"
   id="svg12"
   sodipodi:docname="folder-openSUSE.svg"
   inkscape:version="1.0.1 (3bc2e813f5, 2020-09-07)">
  <metadata
     id="metadata16">
    <rdf:RDF>
      <cc:Work
         rdf:about="">
        <dc:format>image/svg+xml</dc:format>
        <dc:type
           rdf:resource="http://purl.org/dc/dcmitype/StillImage" />
        <dc:title />
      </cc:Work>
    </rdf:RDF>
  </metadata>
  <sodipodi:namedview
     pagecolor="#ffffff"
     bordercolor="#666666"
     borderopacity="1"
     objecttolerance="10"
     gridtolerance="10"
     guidetolerance="10"
     inkscape:pageopacity="0"
     inkscape:pageshadow="2"
     inkscape:window-width="1920"
     inkscape:window-height="1017"
     id="namedview14"
     showgrid="false"
     inkscape:zoom="3.6875"
     inkscape:cx="32"
     inkscape:cy="32"
     inkscape:window-x="0"
     inkscape:window-y="0"
     inkscape:window-maximized="1"
     inkscape:current-layer="svg12"
     inkscape:document-rotation="0" />
  <defs
     id="defs3051">
    <linearGradient
       inkscape:collect="always"
       id="linearGradient835">
      <stop
         style="stop-color:#00a489;stop-opacity:1"
         offset="0"
         id="stop831" />
      <stop
         style="stop-color:#006453;stop-opacity:1"
         offset="1"
         id="stop833" />
    </linearGradient>
    <linearGradient
       inkscape:collect="always"
       id="linearGradient827">
      <stop
         style="stop-color:#004c5a;stop-opacity:1"
         offset="0"
         id="stop823" />
      <stop
         style="stop-color:#00a5be;stop-opacity:1"
         offset="1"
         id="stop825" />
    </linearGradient>
    <style
       type="text/css"
       id="current-color-scheme">
      .ColorScheme-Text {
        color:#31363b;
      }
      .ColorScheme-Background {
        color:#eff0f1;
      }
      .ColorScheme-Highlight {
        color:#3daee9;
      }
      .ColorScheme-ViewText {
        color:#31363b;
      }
      .ColorScheme-ViewBackground {
        color:#fcfcfc;
      }
      .ColorScheme-ViewHover {
        color:#93cee9;
      }
      .ColorScheme-ViewFocus{
        color:#3daee9;
      }
      .ColorScheme-ButtonText {
        color:#31363b;
      }
      .ColorScheme-ButtonBackground {
        color:#eff0f1;
      }
      .ColorScheme-ButtonHover {
        color:#93cee9;
      }
      .ColorScheme-ButtonFocus{
        color:#3daee9;
      }
      </style>
    <linearGradient
       inkscape:collect="always"
       xlink:href="#linearGradient827"
       id="linearGradient829"
       x1="23"
       y1="21"
       x2="48.525425"
       y2="69.694916"
       gradientUnits="userSpaceOnUse" />
    <linearGradient
       inkscape:collect="always"
       xlink:href="#linearGradient835"
       id="linearGradient837"
       x1="4"
       y1="13"
       x2="60"
       y2="13"
       gradientUnits="userSpaceOnUse" />
  </defs>
  <path
     style="fill:url(#linearGradient829);fill-opacity:1;stroke:none"
     d="M 4 6 L 4 11 L 4 20 L 3 20 L 3 21 L 3.0019531 21 C 3.0019031 21.004 3 21.008019 3 21.011719 L 3 57 L 3 58 L 4 58 L 60 58 L 61 58 L 61 57 L 61 21.011719 L 61 21 L 61 16 L 60 16 L 60 11.009766 C 60 11.006766 59.998047 11.004 59.998047 11 L 60 11 L 60 10 L 32 10 L 28 6 L 4 6 z "
     class="ColorScheme-Highlight"
     id="path4" />
  <path
     style="fill-opacity:1;fill-rule:evenodd;fill:url(#linearGradient837)"
     d="M 4 6 L 4 11 L 4 20 L 22 20 L 26 16 L 60 16 L 60 11.009766 C 60 11.006766 59.998047 11.004 59.998047 11 L 60 11 L 60 10 L 32 10 L 28 6 L 4 6 z "
     id="path6" />
  <path
     style="fill:#ffffff;fill-opacity:0.2;fill-rule:evenodd"
     d="M 28 6 L 31 11 L 33 11 L 60 11 L 60 10 L 33 10 L 32 10 L 28 6 z M 26 16 L 22 20 L 3 20 L 3 21 L 23 21 L 26 16 z "
     id="path8" />
  <path
     style="fill-opacity:0.2;fill-rule:evenodd"
     d="M 26 16 L 20 19 L 4 19 L 4 20 L 22 20 L 26 16 z M 3 57 L 3 58 L 4 58 L 60 58 L 61 58 L 61 57 L 60 57 L 4 57 L 3 57 z "
     class="ColorScheme-Text"
     id="path10" />
  <path
     style="color:#4d4d4d;font-size:20.4884px;font-family:TrebuchetMS-Bold;fill:#d3ecf3;fill-opacity:1;fill-rule:evenodd;stroke:none;stroke-width:0.143179;stroke-miterlimit:4"
     d="m 32.283774,27.686 c -5.52242,0 -10,4.477061 -10,10 0,5.522938 4.47758,10 10,10 5.522422,0 9.999999,-4.477062 10,-10 0,-5.522938 -4.477578,-10 -10,-10 z m 0.04789,1.384891 c 4.758278,0 8.618786,3.857348 8.618786,8.615109 0,4.758263 -3.861026,8.615109 -8.618786,8.615109 -2.569274,0 -4.874754,-1.126057 -6.45303,-2.909764 0.648948,-0.50367 1.73468,-0.380784 3.071816,-0.228363 0.640792,0.07283 1.371278,0.156283 2.125233,0.173103 2.106402,0.01222 4.372818,-0.372202 5.771646,-0.983423 0.904335,-0.396607 1.483356,-0.657793 1.845295,-0.9871 0.130514,-0.107092 0.199035,-0.285903 0.268887,-0.471451 l 0.04789,-0.125243 c 0.05858,-0.14987 0.142761,-0.47238 0.180472,-0.648247 0.01676,-0.07696 0.02516,-0.159759 -0.02952,-0.202582 l -0.19521,0.03677 c -0.613776,0.368065 -2.147238,1.069064 -3.583795,1.097605 -1.780149,0.03727 -5.367996,-1.792056 -5.742175,-1.985261 l -0.03677,-0.04418 c -0.08975,-0.214111 -0.626647,-1.488764 -0.740337,-1.756909 2.582539,1.700628 4.723678,2.641913 6.364653,2.78822 1.824488,0.162107 3.247672,-0.834006 3.856341,-1.259674 0.118782,-0.08105 0.209566,-0.144614 0.246781,-0.158381 l 0.04046,-0.06627 c -0.10093,-0.6413 -1.05818,-3.744568 -1.779006,-4.489867 -0.199838,-0.204424 -0.358716,-0.403357 -0.6814,-0.593005 -2.609045,-1.52067 -8.80386,-2.436509 -9.093919,-2.478827 l -0.04789,0.01468 -0.01838,0.04047 c 0,0 -0.02329,1.286359 -0.0258,1.429103 -0.212578,-0.07031 -0.871735,-0.286158 -1.815849,-0.545127 1.231865,-1.524234 3.119691,-2.876611 6.423574,-2.876611 z m 2.276254,4.559865 c 0.04397,-6.7e-4 0.08831,-0.0013 0.132598,0 1.461523,0.05246 2.609808,1.283494 2.559849,2.744014 -0.026,0.706554 -0.323892,1.35937 -0.839781,1.841618 -0.517423,0.484799 -1.189928,0.737482 -1.900557,0.714552 -1.458984,-0.05451 -2.607256,-1.285544 -2.559848,-2.744013 0.02499,-0.707573 0.324508,-1.364586 0.843458,-1.845312 0.484607,-0.454491 1.104843,-0.700972 1.764281,-0.710859 z m -0.06998,0.780843 c -0.425667,0.02589 -0.827342,0.198718 -1.141806,0.493559 -0.358374,0.336447 -0.56983,0.791986 -0.585632,1.285446 -0.03368,1.01956 0.764141,1.877565 1.782682,1.915279 0.494994,0.01534 0.964539,-0.158111 1.32597,-0.493543 0.360412,-0.337983 0.570347,-0.797716 0.585632,-1.289139 0.03414,-1.021079 -0.767331,-1.875924 -1.786374,-1.911602 -0.06171,-0.0021 -0.119665,-0.0033 -0.180472,0 z m 0.486187,0.924486 c 0.452677,0 0.817675,0.245995 0.817674,0.548802 0,0.30129 -0.364997,0.548803 -0.817674,0.548803 -0.454211,0 -0.821364,-0.248031 -0.821364,-0.548803 0,-0.302806 0.367153,-0.548802 0.821364,-0.548802 z"
     id="path2445"
     class="ColorScheme-Text"
     inkscape:connector-curvature="0" />
</svg>
