<?xml version="1.0" encoding="UTF-8" standalone="no"?>
<svg
   xmlns:dc="http://purl.org/dc/elements/1.1/"
   xmlns:cc="http://creativecommons.org/ns#"
   xmlns:rdf="http://www.w3.org/1999/02/22-rdf-syntax-ns#"
   xmlns:svg="http://www.w3.org/2000/svg"
   xmlns="http://www.w3.org/2000/svg"
   xmlns:xlink="http://www.w3.org/1999/xlink"
   xmlns:sodipodi="http://sodipodi.sourceforge.net/DTD/sodipodi-0.dtd"
   xmlns:inkscape="http://www.inkscape.org/namespaces/inkscape"
   viewBox="0 0 64 64"
   version="1.1"
   id="svg12"
   sodipodi:docname="folder-Pop_OS.svg"
   inkscape:version="1.0.1 (3bc2e813f5, 2020-09-07)">
  <metadata
     id="metadata16">
    <rdf:RDF>
      <cc:Work
         rdf:about="">
        <dc:format>image/svg+xml</dc:format>
        <dc:type
           rdf:resource="http://purl.org/dc/dcmitype/StillImage" />
      </cc:Work>
    </rdf:RDF>
  </metadata>
  <sodipodi:namedview
     pagecolor="#ffffff"
     bordercolor="#666666"
     borderopacity="1"
     objecttolerance="10"
     gridtolerance="10"
     guidetolerance="10"
     inkscape:pageopacity="0"
     inkscape:pageshadow="2"
     inkscape:window-width="1920"
     inkscape:window-height="1007"
     id="namedview14"
     showgrid="false"
     inkscape:zoom="3.6875"
     inkscape:cx="32"
     inkscape:cy="32"
     inkscape:window-x="0"
     inkscape:window-y="0"
     inkscape:window-maximized="1"
     inkscape:current-layer="svg12"
     inkscape:document-rotation="0" />
  <defs
     id="defs3051">
    <linearGradient
       inkscape:collect="always"
       id="linearGradient835">
      <stop
         style="stop-color:#00a489;stop-opacity:1"
         offset="0"
         id="stop831" />
      <stop
         style="stop-color:#006453;stop-opacity:1"
         offset="1"
         id="stop833" />
    </linearGradient>
    <linearGradient
       inkscape:collect="always"
       id="linearGradient827">
      <stop
         style="stop-color:#004c5a;stop-opacity:1"
         offset="0"
         id="stop823" />
      <stop
         style="stop-color:#00a5be;stop-opacity:1"
         offset="1"
         id="stop825" />
    </linearGradient>
    <style
       type="text/css"
       id="current-color-scheme">
      .ColorScheme-Text {
        color:#31363b;
      }
      .ColorScheme-Background {
        color:#eff0f1;
      }
      .ColorScheme-Highlight {
        color:#3daee9;
      }
      .ColorScheme-ViewText {
        color:#31363b;
      }
      .ColorScheme-ViewBackground {
        color:#fcfcfc;
      }
      .ColorScheme-ViewHover {
        color:#93cee9;
      }
      .ColorScheme-ViewFocus{
        color:#3daee9;
      }
      .ColorScheme-ButtonText {
        color:#31363b;
      }
      .ColorScheme-ButtonBackground {
        color:#eff0f1;
      }
      .ColorScheme-ButtonHover {
        color:#93cee9;
      }
      .ColorScheme-ButtonFocus{
        color:#3daee9;
      }
      </style>
    <linearGradient
       inkscape:collect="always"
       xlink:href="#linearGradient827"
       id="linearGradient829"
       x1="23"
       y1="21"
       x2="48.525425"
       y2="69.694916"
       gradientUnits="userSpaceOnUse" />
    <linearGradient
       inkscape:collect="always"
       xlink:href="#linearGradient835"
       id="linearGradient837"
       x1="4"
       y1="13"
       x2="60"
       y2="13"
       gradientUnits="userSpaceOnUse" />
  </defs>
  <path
     style="fill:url(#linearGradient829);fill-opacity:1;stroke:none"
     d="M 4 6 L 4 11 L 4 20 L 3 20 L 3 21 L 3.0019531 21 C 3.0019031 21.004 3 21.008019 3 21.011719 L 3 57 L 3 58 L 4 58 L 60 58 L 61 58 L 61 57 L 61 21.011719 L 61 21 L 61 16 L 60 16 L 60 11.009766 C 60 11.006766 59.998047 11.004 59.998047 11 L 60 11 L 60 10 L 32 10 L 28 6 L 4 6 z "
     class="ColorScheme-Highlight"
     id="path4" />
  <path
     style="fill-opacity:1;fill-rule:evenodd;fill:url(#linearGradient837)"
     d="M 4 6 L 4 11 L 4 20 L 22 20 L 26 16 L 60 16 L 60 11.009766 C 60 11.006766 59.998047 11.004 59.998047 11 L 60 11 L 60 10 L 32 10 L 28 6 L 4 6 z "
     id="path6" />
  <path
     style="fill:#ffffff;fill-opacity:0.2;fill-rule:evenodd"
     d="M 28 6 L 31 11 L 33 11 L 60 11 L 60 10 L 33 10 L 32 10 L 28 6 z M 26 16 L 22 20 L 3 20 L 3 21 L 23 21 L 26 16 z "
     id="path8" />
  <path
     style="fill-opacity:0.2;fill-rule:evenodd"
     d="M 26 16 L 20 19 L 4 19 L 4 20 L 22 20 L 26 16 z M 3 57 L 3 58 L 4 58 L 60 58 L 61 58 L 61 57 L 60 57 L 4 57 L 3 57 z "
     class="ColorScheme-Text"
     id="path10" />
  <path
     style="fill:#ffffff;fill-opacity:1;stroke-width:0.0218857"
     id="path2-3"
     d="m 41.406586,39.996115 c -0.04115,0.174754 -0.129919,0.329604 -0.281479,0.42694 -0.238164,0.152636 -0.528307,0.108417 -0.734001,-0.07744 -0.192705,-0.172549 -0.257665,-0.464558 -0.197037,-0.716743 0.06282,-0.26325 0.261992,-0.495526 0.517479,-0.568519 0.569451,-0.161491 0.805472,0.471183 0.695038,0.935741 z m -0.348599,-1.796276 c -0.352931,-0.143791 -0.231674,-2.035177 0.09095,-4.331401 0.09095,-0.641522 0.246841,-0.944593 0.422218,-1.099443 0.251165,-0.219005 0.70803,-0.227853 1.017657,-0.181396 0.355091,0.05305 0.695036,0.22121 0.952693,0.475606 0.227353,0.22564 0.253328,0.455712 0.175379,0.754346 -0.12774,0.475624 -0.346434,0.931327 -0.55646,1.375965 -0.04975,0.108416 -0.485007,0.951229 -0.54347,1.055198 -1.05013,1.889182 -1.260156,2.072796 -1.558954,1.951125 z" />
  <path
     style="fill:#ffffff;fill-opacity:1;stroke-width:0.0218857"
     id="path4-3"
     d="m 33.934433,37.348158 c 0.207859,0.906992 0.186197,1.90245 0.0092,2.619194 -0.166722,0.676927 -0.619249,1.283049 -1.338103,1.486567 -0.630076,0.179183 -1.364085,0.04863 -1.814448,-0.39376 -0.740505,-0.725595 -1.173547,-2.42895 -0.980843,-3.665544 0.155895,-0.993255 0.679875,-2.265249 1.829606,-2.32055 0.07359,-0.0044 0.147235,-0.0017 0.220852,0.0044 1.17138,0.108411 1.810119,1.117139 2.074277,2.269672 z M 31.816846,39.4121 c 0.06499,0.0111 0.129908,0.0111 0.194871,-0.0094 0.218681,-0.06412 0.344268,-0.296433 0.402737,-0.522073 0.08875,-0.342885 0.07582,-0.712312 -0.03892,-1.048562 -0.05849,-0.170336 -0.145071,-0.336248 -0.277151,-0.460129 -0.465513,-0.435792 -0.931039,0.01767 -1.011147,0.53313 -0.06286,0.402617 0.02809,0.86938 0.274983,1.194568 0.114741,0.150425 0.279312,0.280941 0.454685,0.311914 z" />
  <path
     style="fill:#ffffff;fill-opacity:1;stroke-width:0.0218857"
     id="path6-6"
     d="m 36.469899,39.270526 c -0.0017,1.674606 0.162384,2.955438 -0.55863,3.108084 -0.584607,0.12164 -0.565112,-0.402619 -0.610593,-0.842844 -0.173209,-1.705573 -0.331277,-4.539341 -0.398398,-6.253764 0.04767,-0.736641 0.530479,-1.187931 1.032808,-1.29853 0.775149,-0.170338 1.602261,-0.121655 2.288639,0.311912 1.357583,0.858316 1.465852,2.433366 0.643069,3.71863 -0.450368,0.701254 -1.812293,1.210055 -2.396895,1.165811 z m 0.173212,-3.754035 c -0.08447,0.01333 -0.22302,0.05305 -0.261988,0.137159 -0.09308,0.196876 -0.08665,1.446754 0.07582,1.971028 0.02606,0.08629 0.08441,0.168126 0.168889,0.199104 0.307455,0.115 0.584607,-0.269888 0.710184,-0.502169 0.175388,-0.322975 0.231679,-0.70346 0.121233,-1.057412 -0.103911,-0.32961 -0.426546,-0.807431 -0.814123,-0.74771 z" />
  <path
     style="fill:#ffffff;fill-opacity:1;stroke-width:0.0218857"
     id="path8-7"
     d="m 28.70543,36.348262 c -0.50882,1.09945 -1.353256,1.973248 -2.522475,2.404617 0.335615,0.895919 0.677715,1.780788 1.01116,2.674503 0.186206,0.482239 0.363762,1.010945 0.20136,1.486566 -0.168891,0.486667 -0.827104,0.621611 -1.305622,0.103947 -0.920211,-0.999898 -4.031638,-7.335516 -4.26115,-7.811124 -0.19487,-0.409248 -0.487171,-0.847251 -0.478515,-1.320654 0.01522,-0.71232 1.093443,-1.433484 1.610929,-1.80291 0.723181,-0.51543 1.558952,-0.867168 2.453188,-0.869381 0.697197,0 1.292638,0.194672 1.820945,0.539763 0.8098,0.530923 1.372755,1.378182 1.580616,2.336045 0.181865,0.84282 0.142903,1.70557 -0.110405,2.258608 M 26.33454,35.14483 c -0.181875,-0.67471 -0.593265,-1.296322 -1.11076,-1.73212 -0.11261,-0.09509 -0.233845,-0.183601 -0.374585,-0.232269 -0.97001,-0.325187 -0.549958,1.331719 -0.3919,1.749812 0.218692,0.58622 0.549963,1.327288 0.99384,1.76973 0.09748,0.0974 0.212191,0.183599 0.344267,0.210147 0.201361,0.04199 0.387567,-0.101781 0.489338,-0.269887 0.08446,-0.139362 0.116881,-0.30527 0.136405,-0.466754 0.03689,-0.342888 0.0044,-0.69241 -0.08665,-1.028659 z" />
  <path
     style="fill:#ffffff;fill-opacity:1;stroke-width:0.0218857"
     id="path10-5"
     d="m 40.305258,44.769316 c -0.0044,0.971131 -0.584609,1.942277 -1.864245,1.942277 -1.279642,0 -1.875082,-0.955658 -1.875082,-1.931221 0,-1.216691 0.829271,-1.968818 1.901052,-1.968818 1.242842,0.0111 1.849107,0.953433 1.838275,1.957762 z m -1.838275,-1.344995 c -0.803285,0 -1.253655,0.570745 -1.257988,1.349408 0,0.676921 0.370262,1.311823 1.242834,1.311823 0.872588,0 1.206025,-0.687984 1.206025,-1.318456 0.01084,-0.654792 -0.329105,-1.327289 -1.190871,-1.342775 z m 2.375247,2.78953 c 0,0.14379 0.0044,-0.683555 0,-0.809643 h 0.588942 l 0.04114,0.506577 c 0.192708,0.112863 0.491503,0.196884 0.736179,0.196884 0.454688,0 0.928876,-0.117274 0.928876,-0.57074 -0.01515,-0.411452 -0.543474,-0.495525 -0.970025,-0.539755 -0.725335,-0.07529 -1.309955,-0.256624 -1.309955,-1.088387 0,-0.741069 0.820618,-1.110507 1.431214,-1.110507 0.491503,-0.0111 0.840106,0.0685 1.283967,0.431368 0,0.298641 -0.0044,0.475621 -0.0044,0.774262 h -0.569357 l -0.03686,-0.491109 c -0.229515,-0.112853 -0.465522,-0.143778 -0.647402,-0.139362 -0.391905,0.0044 -0.809792,0.192469 -0.809792,0.528706 0,0.329617 0.270654,0.42032 0.751332,0.491094 0.783808,0.106257 1.539467,0.287594 1.539467,1.141486 -0.0044,0.933527 -0.861754,1.179081 -1.597929,1.179081 -0.56079,0.0017 -0.911554,-0.103947 -1.355424,-0.499955 z"
     inkscape:connector-curvature="0" />
  <path
     style="fill:#ffffff;stroke-width:0.0218857"
     id="path12"
     d="m 35.771299,46.393034 c 0,0.170339 -0.13424,0.307486 -0.300964,0.307486 h -3.479498 c -0.166724,0 -0.300965,-0.137147 -0.300965,-0.307486 v -0.0265 c 0,-0.170336 0.134241,-0.307488 0.300965,-0.307488 h 3.479498 c 0.166724,0 0.300964,0.137152 0.300964,0.307488 z"
     inkscape:connector-curvature="0" />
</svg>
