<?xml version="1.0" encoding="UTF-8" standalone="no"?>
<svg
   xmlns:dc="http://purl.org/dc/elements/1.1/"
   xmlns:cc="http://creativecommons.org/ns#"
   xmlns:rdf="http://www.w3.org/1999/02/22-rdf-syntax-ns#"
   xmlns:svg="http://www.w3.org/2000/svg"
   xmlns="http://www.w3.org/2000/svg"
   xmlns:xlink="http://www.w3.org/1999/xlink"
   xmlns:sodipodi="http://sodipodi.sourceforge.net/DTD/sodipodi-0.dtd"
   xmlns:inkscape="http://www.inkscape.org/namespaces/inkscape"
   inkscape:version="1.0 (4035a4fb49, 2020-05-01)"
   sodipodi:docname="user-trash.svg"
   id="svg71"
   viewBox="0 0 64 64"
   version="1.1">
  <metadata
     id="metadata75">
    <rdf:RDF>
      <cc:Work
         rdf:about="">
        <dc:format>image/svg+xml</dc:format>
        <dc:type
           rdf:resource="http://purl.org/dc/dcmitype/StillImage" />
      </cc:Work>
    </rdf:RDF>
  </metadata>
  <sodipodi:namedview
     inkscape:document-rotation="0"
     inkscape:current-layer="svg71"
     inkscape:window-maximized="1"
     inkscape:window-y="0"
     inkscape:window-x="0"
     inkscape:cy="28.750671"
     inkscape:cx="50.163101"
     inkscape:zoom="6.2289233"
     showgrid="false"
     id="namedview73"
     inkscape:window-height="1017"
     inkscape:window-width="1920"
     inkscape:pageshadow="2"
     inkscape:pageopacity="0"
     guidetolerance="10"
     gridtolerance="10"
     objecttolerance="10"
     borderopacity="1"
     bordercolor="#666666"
     pagecolor="#ffffff">
    <inkscape:grid
       id="grid882"
       type="xygrid" />
  </sodipodi:namedview>
  <defs
     id="defs12">
    <radialGradient
       gradientUnits="userSpaceOnUse"
       gradientTransform="matrix(7.4835576,-6.814988e-8,5.4400368e-8,1.5,-121.89485,3.2500015)"
       r="4"
       cy="8.5"
       cx="20.571428"
       id="l">
      <stop
         id="stop2"
         offset="0"
         stop-opacity=".25098041"
         stop-color="#4f575f" />
      <stop
         id="stop4"
         offset="1"
         stop-color="#8a939a" />
    </radialGradient>
    <linearGradient
       gradientUnits="userSpaceOnUse"
       gradientTransform="matrix(2,0,0,1.8333333,-769.142,-942.62968)"
       y2="545.79797"
       y1="521.79797"
       x2="410.57101"
       x1="390.57101"
       id="k">
      <stop
         style="stop-color:#4e9fac;stop-opacity:1"
         id="stop7"
         offset="0"
         stop-color="#bdc3c7" />
      <stop
         id="stop9"
         offset="1"
         stop-color="#8a9696" />
    </linearGradient>
    <radialGradient
       r="4"
       cy="8.5"
       cx="16"
       gradientTransform="matrix(3.5,0,0,3,-24,-13.5)"
       gradientUnits="userSpaceOnUse"
       id="radialGradient913"
       xlink:href="#b"
       inkscape:collect="always" />
  </defs>
  <linearGradient
     id="a">
    <stop
       id="stop14"
       offset="0"
       stop-opacity=".4"
       stop-color="#4f575f" />
    <stop
       id="stop16"
       offset=".5"
       stop-opacity=".6"
       stop-color="#4f575f" />
    <stop
       id="stop18"
       offset="1"
       stop-opacity=".4"
       stop-color="#4f575f" />
  </linearGradient>
  <radialGradient
     gradientUnits="userSpaceOnUse"
     gradientTransform="matrix(3.5,0,0,3,-24,-13.5)"
     r="4"
     cy="8.5"
     cx="16"
     id="b">
    <stop
       id="stop21"
       offset="0"
       stop-opacity=".25"
       stop-color="#4f575f" />
    <stop
       id="stop23"
       offset="1"
       stop-color="#9da5ab" />
  </radialGradient>
  <linearGradient
     gradientUnits="userSpaceOnUse"
     gradientTransform="matrix(2,0,0,2,-769.142,-1029.596)"
     y2="520.79797"
     y1="522.79797"
     x2="412.57101"
     x1="412.57101"
     id="c">
    <stop
       id="stop26"
       offset="0"
       stop-color="#9da5ab" />
    <stop
       id="stop28"
       offset="1"
       stop-color="#bdc3c7" />
  </linearGradient>
  <linearGradient
     gradientUnits="userSpaceOnUse"
     gradientTransform="matrix(2,0,0,2,-769.142,-1029.596)"
     y2="516.79797"
     y1="520.79797"
     x2="395.57101"
     x1="395.57101"
     id="e">
    <stop
       id="stop31"
       offset="0"
       stop-color="#afb0b3" />
    <stop
       id="stop33"
       offset="1"
       stop-color="#bdc3c7" />
  </linearGradient>
  <linearGradient
     gradientUnits="userSpaceOnUse"
     gradientTransform="matrix(2,0,0,1.9090909,-769.142,-980.97798)"
     y2="537.79797"
     y1="521.79797"
     x2="406.57101"
     x1="390.57101"
     id="f">
    <stop
       id="stop36"
       offset="0"
       stop-color="#292c2f" />
    <stop
       style="stop-color:#4e9fac;stop-opacity:1"
       id="stop38"
       offset="1"
       stop-opacity="0" />
  </linearGradient>
  <linearGradient
     xlink:href="#a"
     gradientUnits="userSpaceOnUse"
     gradientTransform="matrix(1.33334,0,0,1.8,-498.094,-926.63634)"
     y2="534.79797"
     y1="534.79797"
     x2="394.57101"
     x1="391.57101"
     id="g" />
  <linearGradient
     xlink:href="#a"
     gradientUnits="userSpaceOnUse"
     gradientTransform="matrix(1.33334,0,0,1.7999999,-508.096,-926.63626)"
     y2="534.79797"
     y1="534.79797"
     x2="394.57101"
     x1="391.57101"
     id="h" />
  <linearGradient
     xlink:href="#a"
     gradientUnits="userSpaceOnUse"
     gradientTransform="matrix(1.33334,0,0,1.8,-486.096,-926.63634)"
     y2="534.79797"
     y1="534.79797"
     x2="394.57101"
     x1="391.57101"
     id="i" />
  <linearGradient
     xlink:href="#a"
     gradientUnits="userSpaceOnUse"
     gradientTransform="matrix(1.33334,0,0,1.8,-476.094,-926.63634)"
     y2="534.79797"
     y1="534.79797"
     x2="394.57101"
     x1="391.57101"
     id="j" />
  <path
     fill="url(#k)"
     stroke-width="1.9148542"
     id="path45"
     d="M 12,14 V 56.166668 C 12,57.182332 12.892,58 14,58 h 36 c 1.108,0 2,-0.817668 2,-1.833332 V 14 Z" />
  <path
     d="m 10,12 c -1.108,0 -2,0.892 -2,2 v 2 h 48 v -2 c 0,-1.108 -0.892,-2 -2,-2 z"
     id="path51"
     style="fill:#4e9fac;stroke-width:2;fill-opacity:1"
     inkscape:connector-curvature="0" />
  <path
     d="m 24,6 c -1.108,0 -2,0.892 -2,2 v 4 h 4 v -1.5 c -6.1e-4,-0.263392 0.203217,-0.48209 0.466,-0.5 h 11.07 c 0.261993,0.01891 0.464682,0.237327 0.464,0.5 V 12 h 4 V 8 C 42,6.892 41.108,6 40,6 Z"
     id="path47"
     inkscape:connector-curvature="0"
     style="fill:#4e9fac;stroke-width:2;fill-opacity:1"
     sodipodi:nodetypes="ssccccccccsss" />
  <path
     d="m 26,9 c -0.554,0 -1,0.446 -1,1 v 2 h 1 v -1.5 c -6.1e-4,-0.263392 0.203217,-0.48209 0.466,-0.5 h 11.07 c 0.261993,0.01891 0.464682,0.237327 0.464,0.5 V 12 h 1 V 10 C 39,9.446 38.554,9 38,9 Z"
     id="path49"
     inkscape:connector-curvature="0"
     style="fill:url(#radialGradient913);stroke-width:2"
     sodipodi:nodetypes="ssccccccccsss" />
  <path
     d="m 26.00002,18 c 1.108,0 2,0.8028 2,1.8 v 32.4 c 0,0.9972 -0.892,1.8 -2,1.8 -1.108,0 -2,-0.8028 -2,-1.8 V 19.8 c 0,-0.9972 0.892,-1.8 2,-1.8 z"
     id="path55"
     style="fill:#008864;stroke-width:1.89736652;fill-opacity:1"
     inkscape:connector-curvature="0" />
  <path
     d="m 16.00002,18 c 1.108,0 2,0.8028 2,1.8 v 32.4 c 0,0.9972 -0.892,1.8 -2,1.8 -1.108,0 -2,-0.8028 -2,-1.8 V 19.8 c 0,-0.9972 0.892,-1.8 2,-1.8 z"
     id="path57"
     style="fill:#008864;stroke-width:1.89736652;fill-opacity:1"
     inkscape:connector-curvature="0" />
  <path
     d="m 38.00002,18 c 1.108,0 2,0.8028 2,1.8 v 32.4 c 0,0.9972 -0.892,1.8 -2,1.8 -1.108,0 -2,-0.8028 -2,-1.8 V 19.8 c 0,-0.9972 0.892,-1.8 2,-1.8 z"
     id="path59"
     style="fill:#008864;stroke-width:1.89736652;fill-opacity:1"
     inkscape:connector-curvature="0" />
  <path
     d="m 48.00002,18 c 1.108,0 2,0.8028 2,1.8 v 32.4 c 0,0.9972 -0.892,1.8 -2,1.8 -1.108,0 -2,-0.8028 -2,-1.8 V 19.8 c 0,-0.9972 0.892,-1.8 2,-1.8 z"
     id="path61"
     style="fill:#008864;stroke-width:1.89736652;fill-opacity:1"
     inkscape:connector-curvature="0" />
  <path
     inkscape:connector-curvature="0"
     style="opacity:0.2;fill:url(#f);stroke-width:1.9540168"
     id="path65"
     d="M 12,15.181818 V 19 l 40,38.181818 v -42 z" />
  <path
     inkscape:connector-curvature="0"
     style="fill:url(#l);stroke-width:1.41266239"
     id="path67"
     d="M 8,16 H 56 V 15 H 8.105236 Z" />
  <path
     id="path69"
     stroke-width="1.9148542"
     opacity=".2"
     d="m12 55.166016v1c0 1.015664 0.892 1.833984 2 1.833984h36c1.108 0 2-0.81832 2-1.833984v-1c0 1.015664-0.892 1.833984-2 1.833984h-36c-1.108 0-2-0.81832-2-1.833984z" />
</svg>
