<?xml version="1.0" encoding="UTF-8" standalone="no"?>
<svg
   xmlns:dc="http://purl.org/dc/elements/1.1/"
   xmlns:cc="http://creativecommons.org/ns#"
   xmlns:rdf="http://www.w3.org/1999/02/22-rdf-syntax-ns#"
   xmlns:svg="http://www.w3.org/2000/svg"
   xmlns="http://www.w3.org/2000/svg"
   xmlns:xlink="http://www.w3.org/1999/xlink"
   xmlns:sodipodi="http://sodipodi.sourceforge.net/DTD/sodipodi-0.dtd"
   xmlns:inkscape="http://www.inkscape.org/namespaces/inkscape"
   viewBox="0 0 32 32"
   version="1.1"
   id="svg12"
   sodipodi:docname="folder-KDE.svg"
   inkscape:version="1.0.1 (3bc2e813f5, 2020-09-07)">
  <metadata
     id="metadata16">
    <rdf:RDF>
      <cc:Work
         rdf:about="">
        <dc:format>image/svg+xml</dc:format>
        <dc:type
           rdf:resource="http://purl.org/dc/dcmitype/StillImage" />
      </cc:Work>
    </rdf:RDF>
  </metadata>
  <sodipodi:namedview
     pagecolor="#ffffff"
     bordercolor="#666666"
     borderopacity="1"
     objecttolerance="10"
     gridtolerance="10"
     guidetolerance="10"
     inkscape:pageopacity="0"
     inkscape:pageshadow="2"
     inkscape:window-width="1920"
     inkscape:window-height="1017"
     id="namedview14"
     showgrid="false"
     inkscape:zoom="7.375"
     inkscape:cx="16"
     inkscape:cy="16"
     inkscape:window-x="0"
     inkscape:window-y="0"
     inkscape:window-maximized="1"
     inkscape:current-layer="svg12"
     inkscape:document-rotation="0" />
  <defs
     id="defs3051">
    <linearGradient
       inkscape:collect="always"
       id="linearGradient4538">
      <stop
         style="stop-color:#00a489;stop-opacity:1"
         offset="0"
         id="stop4534" />
      <stop
         style="stop-color:#006453;stop-opacity:1"
         offset="1"
         id="stop4536" />
    </linearGradient>
    <linearGradient
       inkscape:collect="always"
       id="linearGradient4530">
      <stop
         style="stop-color:#004c5a;stop-opacity:1"
         offset="0"
         id="stop4526" />
      <stop
         style="stop-color:#00a5be;stop-opacity:1"
         offset="1"
         id="stop4528" />
    </linearGradient>
    <style
       type="text/css"
       id="current-color-scheme">
      .ColorScheme-Text {
        color:#31363b;
      }
      .ColorScheme-Background {
        color:#eff0f1;
      }
      .ColorScheme-Highlight {
        color:#3daee9;
      }
      .ColorScheme-ViewText {
        color:#31363b;
      }
      .ColorScheme-ViewBackground {
        color:#fcfcfc;
      }
      .ColorScheme-ViewHover {
        color:#93cee9;
      }
      .ColorScheme-ViewFocus{
        color:#3daee9;
      }
      .ColorScheme-ButtonText {
        color:#31363b;
      }
      .ColorScheme-ButtonBackground {
        color:#eff0f1;
      }
      .ColorScheme-ButtonHover {
        color:#93cee9;
      }
      .ColorScheme-ButtonFocus{
        color:#3daee9;
      }
      </style>
    <linearGradient
       inkscape:collect="always"
       xlink:href="#linearGradient4530"
       id="linearGradient4532"
       x1="12"
       y1="11"
       x2="23.813559"
       y2="34.711864"
       gradientUnits="userSpaceOnUse" />
    <linearGradient
       inkscape:collect="always"
       xlink:href="#linearGradient4538"
       id="linearGradient4540"
       x1="2"
       y1="6.5"
       x2="30"
       y2="6.5"
       gradientUnits="userSpaceOnUse" />
  </defs>
  <path
     style="fill:url(#linearGradient4532);fill-opacity:1;stroke:none"
     d="M 2 3 L 2 10 L 1 10 L 1 29 L 12 29 L 13 29 L 31 29 L 31 8 L 30 8 L 30 5 L 16 5 L 14 3 L 2 3 z "
     class="ColorScheme-Highlight"
     id="path4" />
  <path
     style="fill-opacity:1;fill-rule:evenodd;fill:url(#linearGradient4540)"
     d="m 2,3 0,7 9,0 L 13,8 30,8 30,5 16,5 14,3 2,3 Z"
     id="path6" />
  <path
     style="fill:#ffffff;fill-opacity:0.2;fill-rule:evenodd"
     d="M 14 3 L 15 6 L 30 6 L 30 5 L 16 5 L 14 3 z M 13 8 L 11 10 L 1 10 L 1 11 L 12 11 L 13 8 z "
     id="path8" />
  <path
     style="fill-opacity:0.2;fill-rule:evenodd"
     d="M 13 8 L 11 9 L 2 9 L 2 10 L 11 10 L 13 8 z M 1 28 L 1 29 L 31 29 L 31 28 L 1 28 z "
     class="ColorScheme-Text"
     id="path10" />
  <path
     style="color:#d3dae3;fill:#d3ecf3;fill-opacity:1;stroke-width:0.47618"
     d="m 16.713848,13 -1.904752,0.28832 v 6.889836 l 1.904752,-0.511525 v -2.661812 l 1.90475,3.138001 1.90475,-0.714284 L 18.14241,16.571411 20.52428,13.477125 18.676261,13 16.713848,16.123126 Z m -3.87833,1.868475 c -0.04509,0 -0.0901,0.01751 -0.124627,0.05215 l -0.748695,0.748692 c -0.06911,0.06911 -0.05248,0.167765 0,0.25018 l 0.774739,1.216518 c -0.05744,0.119149 -0.10711,0.24186 -0.148813,0.367368 -0.0023,0.005 -0.005,0.01044 -0.0061,0.01576 l -1.405305,0.312498 C 11.081337,17.852881 11,17.910671 11,18.008357 v 0.467815 0.467824 c 0,0.09768 0.08138,0.155521 0.176717,0.176716 l 1.405329,0.312499 c 0.0034,0.0092 0.0076,0.01772 0.01123,0.02694 0.04053,0.12193 0.08872,0.2412 0.144151,0.357149 l -0.774802,1.215586 c -0.0525,0.08244 -0.06912,0.181104 0,0.250178 l 0.748692,0.748692 c 0.06911,0.06912 0.180177,0.06912 0.249252,0 l 1.214615,-0.773806 c 0.119405,0.05812 0.242425,0.108397 0.3683,0.15067 0.0079,0.003 0.01584,0.0074 0.02423,0.01029 l 0.311568,1.404376 c 0,0.09769 0.07902,0.176717 0.17671,0.176717 h 1.057468 c 0.09769,0 0.15552,-0.08138 0.176713,-0.176717 l 0.311564,-1.447157 c 0.14315,-0.05377 0.282102,-0.118173 0.415738,-0.192525 l 1.185819,0.848221 c 0.06911,0.06911 0.180176,0.06911 0.249251,0 l 0.74865,-0.748701 c 0.06912,-0.06911 0.0525,-0.167769 0,-0.250191 l -0.451075,-0.684514 -0.04748,0.01762 c -0.107263,0.0403 -0.228013,-0.002 -0.28739,-0.09951 l -0.474418,-0.781263 c -0.395206,0.945333 -1.328532,1.609933 -2.41721,1.609933 -1.446449,0 -2.619034,-1.172585 -2.619034,-2.619039 0,-1.109951 0.691805,-2.056341 1.666657,-2.437673 v -0.521761 l -0.0043,0.01673 c -0.01051,0.0043 -0.02025,0.0093 -0.03066,0.01304 -0.124203,0.04128 -0.24566,0.09034 -0.363653,0.146948 l -1.212725,-0.772862 c -0.03455,-0.03453 -0.07957,-0.05216 -0.124629,-0.05216 z"
     class="ColorScheme-Text"
     id="path10-7" />
</svg>
