<?xml version="1.0" encoding="UTF-8" standalone="no"?>
<svg
   xmlns:dc="http://purl.org/dc/elements/1.1/"
   xmlns:cc="http://creativecommons.org/ns#"
   xmlns:rdf="http://www.w3.org/1999/02/22-rdf-syntax-ns#"
   xmlns:svg="http://www.w3.org/2000/svg"
   xmlns="http://www.w3.org/2000/svg"
   xmlns:xlink="http://www.w3.org/1999/xlink"
   xmlns:sodipodi="http://sodipodi.sourceforge.net/DTD/sodipodi-0.dtd"
   xmlns:inkscape="http://www.inkscape.org/namespaces/inkscape"
   viewBox="0 0 32 32"
   version="1.1"
   id="svg12"
   sodipodi:docname="folder-Pop_OS.svg"
   inkscape:version="1.0.1 (3bc2e813f5, 2020-09-07)">
  <metadata
     id="metadata16">
    <rdf:RDF>
      <cc:Work
         rdf:about="">
        <dc:format>image/svg+xml</dc:format>
        <dc:type
           rdf:resource="http://purl.org/dc/dcmitype/StillImage" />
      </cc:Work>
    </rdf:RDF>
  </metadata>
  <sodipodi:namedview
     pagecolor="#ffffff"
     bordercolor="#666666"
     borderopacity="1"
     objecttolerance="10"
     gridtolerance="10"
     guidetolerance="10"
     inkscape:pageopacity="0"
     inkscape:pageshadow="2"
     inkscape:window-width="1920"
     inkscape:window-height="1007"
     id="namedview14"
     showgrid="false"
     inkscape:zoom="7.375"
     inkscape:cx="16"
     inkscape:cy="16"
     inkscape:window-x="0"
     inkscape:window-y="0"
     inkscape:window-maximized="1"
     inkscape:current-layer="svg12"
     inkscape:document-rotation="0" />
  <defs
     id="defs3051">
    <linearGradient
       inkscape:collect="always"
       id="linearGradient4538">
      <stop
         style="stop-color:#00a489;stop-opacity:1"
         offset="0"
         id="stop4534" />
      <stop
         style="stop-color:#006453;stop-opacity:1"
         offset="1"
         id="stop4536" />
    </linearGradient>
    <linearGradient
       inkscape:collect="always"
       id="linearGradient4530">
      <stop
         style="stop-color:#004c5a;stop-opacity:1"
         offset="0"
         id="stop4526" />
      <stop
         style="stop-color:#00a5be;stop-opacity:1"
         offset="1"
         id="stop4528" />
    </linearGradient>
    <style
       type="text/css"
       id="current-color-scheme">
      .ColorScheme-Text {
        color:#31363b;
      }
      .ColorScheme-Background {
        color:#eff0f1;
      }
      .ColorScheme-Highlight {
        color:#3daee9;
      }
      .ColorScheme-ViewText {
        color:#31363b;
      }
      .ColorScheme-ViewBackground {
        color:#fcfcfc;
      }
      .ColorScheme-ViewHover {
        color:#93cee9;
      }
      .ColorScheme-ViewFocus{
        color:#3daee9;
      }
      .ColorScheme-ButtonText {
        color:#31363b;
      }
      .ColorScheme-ButtonBackground {
        color:#eff0f1;
      }
      .ColorScheme-ButtonHover {
        color:#93cee9;
      }
      .ColorScheme-ButtonFocus{
        color:#3daee9;
      }
      </style>
    <linearGradient
       inkscape:collect="always"
       xlink:href="#linearGradient4530"
       id="linearGradient4532"
       x1="12"
       y1="11"
       x2="23.813559"
       y2="34.711864"
       gradientUnits="userSpaceOnUse" />
    <linearGradient
       inkscape:collect="always"
       xlink:href="#linearGradient4538"
       id="linearGradient4540"
       x1="2"
       y1="6.5"
       x2="30"
       y2="6.5"
       gradientUnits="userSpaceOnUse" />
  </defs>
  <path
     style="fill:url(#linearGradient4532);fill-opacity:1;stroke:none"
     d="M 2 3 L 2 10 L 1 10 L 1 29 L 12 29 L 13 29 L 31 29 L 31 8 L 30 8 L 30 5 L 16 5 L 14 3 L 2 3 z "
     class="ColorScheme-Highlight"
     id="path4" />
  <path
     style="fill-opacity:1;fill-rule:evenodd;fill:url(#linearGradient4540)"
     d="m 2,3 0,7 9,0 L 13,8 30,8 30,5 16,5 14,3 2,3 Z"
     id="path6" />
  <path
     style="fill:#ffffff;fill-opacity:0.2;fill-rule:evenodd"
     d="M 14 3 L 15 6 L 30 6 L 30 5 L 16 5 L 14 3 z M 13 8 L 11 10 L 1 10 L 1 11 L 12 11 L 13 8 z "
     id="path8" />
  <path
     style="fill-opacity:0.2;fill-rule:evenodd"
     d="M 13 8 L 11 9 L 2 9 L 2 10 L 11 10 L 13 8 z M 1 28 L 1 29 L 31 29 L 31 28 L 1 28 z "
     class="ColorScheme-Text"
     id="path10" />
  <path
     style="fill:#ffffff;fill-opacity:1;stroke-width:0.0141197"
     id="path2-3"
     d="m 21.729533,19.94147 c -0.02647,0.112754 -0.08379,0.212658 -0.181599,0.275454 -0.153659,0.09848 -0.34085,0.06992 -0.473556,-0.04994 -0.124324,-0.11132 -0.166225,-0.299712 -0.127119,-0.462412 0.04052,-0.169831 0.169026,-0.319695 0.333866,-0.366787 0.367386,-0.104185 0.519651,0.303991 0.448408,0.603703 z M 21.50463,18.782588 c -0.227696,-0.09276 -0.149473,-1.313019 0.05861,-2.794455 0.05861,-0.413884 0.159258,-0.609411 0.272399,-0.709314 0.162048,-0.141293 0.456792,-0.147001 0.656559,-0.11703 0.229093,0.03425 0.448406,0.142718 0.614633,0.306844 0.146681,0.145575 0.163444,0.294003 0.113156,0.486675 -0.08245,0.30685 -0.223507,0.600851 -0.359008,0.887719 -0.03215,0.06995 -0.312909,0.613695 -0.35063,0.680772 -0.677503,1.21883 -0.813005,1.337286 -1.005773,1.258789 z" />
  <path
     style="fill:#ffffff;fill-opacity:1;stroke-width:0.0141197"
     id="path4-3"
     d="m 16.908782,18.233117 c 0.134104,0.585152 0.120136,1.227391 0.0051,1.689805 -0.107561,0.436722 -0.399515,0.827772 -0.863293,0.959075 -0.406499,0.115603 -0.880054,0.03146 -1.17061,-0.254045 -0.477746,-0.468117 -0.75713,-1.56706 -0.632801,-2.364863 0.100575,-0.640811 0.438628,-1.461453 1.18039,-1.497131 0.04749,-0.0029 0.09499,-0.0013 0.142483,0.0029 0.75573,0.06995 1.167821,0.720735 1.338244,1.464305 z m -1.366178,1.331577 c 0.04189,0.0071 0.08379,0.0071 0.125724,-0.0053 0.141088,-0.04143 0.22211,-0.191248 0.259826,-0.336821 0.05731,-0.221216 0.04887,-0.459558 -0.02517,-0.676493 -0.03769,-0.109893 -0.09357,-0.216934 -0.17881,-0.296857 -0.300333,-0.281156 -0.600672,0.01143 -0.652357,0.343954 -0.04052,0.259754 0.01818,0.560892 0.177411,0.770691 0.07404,0.09705 0.180201,0.18125 0.293347,0.201234 z" />
  <path
     style="fill:#ffffff;fill-opacity:1;stroke-width:0.0141197"
     id="path6-6"
     d="m 18.544571,19.473349 c -0.0017,1.080394 0.10477,1.906738 -0.360407,2.005215 -0.377164,0.07849 -0.36459,-0.259749 -0.393925,-0.54376 -0.111758,-1.100368 -0.213729,-2.928612 -0.257033,-4.034691 0.03069,-0.475255 0.342248,-0.766405 0.666328,-0.837763 0.500095,-0.109895 1.033719,-0.07848 1.476539,0.201235 0.875863,0.55375 0.945705,1.569914 0.41488,2.399119 -0.29056,0.452422 -1.169214,0.780675 -1.546382,0.752131 z m 0.111755,-2.421952 c -0.05449,0.0085 -0.143881,0.03425 -0.16903,0.08849 -0.06008,0.127018 -0.05585,0.933388 0.04887,1.271633 0.01676,0.05565 0.05448,0.108466 0.108964,0.128449 0.19836,0.0742 0.377168,-0.17412 0.458186,-0.323977 0.113147,-0.20837 0.14947,-0.453847 0.07824,-0.682201 -0.06706,-0.212656 -0.275194,-0.520928 -0.525238,-0.482396 z" />
  <path
     style="fill:#ffffff;fill-opacity:1;stroke-width:0.0141197"
     id="path8-7"
     d="m 13.535243,17.588024 c -0.32828,0.709319 -0.873078,1.273061 -1.627404,1.551364 0.216516,0.578018 0.437227,1.148893 0.652354,1.725481 0.120139,0.31113 0.234682,0.652231 0.129915,0.959076 -0.108957,0.313988 -0.533623,0.401042 -0.842344,0.06709 -0.593686,-0.645093 -2.601046,-4.73259 -2.749115,-5.039436 -0.125725,-0.264032 -0.314305,-0.546615 -0.30872,-0.852036 0.0097,-0.45956 0.705432,-0.924825 1.039305,-1.163166 0.466563,-0.332537 1.005774,-0.559462 1.582701,-0.560891 0.449805,0 0.833952,0.125595 1.174804,0.348236 0.522442,0.342528 0.885637,0.889147 1.019743,1.507122 0.117344,0.543758 0.09221,1.10037 -0.07126,1.457168 M 12.0056,16.811631 c -0.117346,-0.435297 -0.382761,-0.836339 -0.716622,-1.117497 -0.07261,-0.06136 -0.150862,-0.118456 -0.241662,-0.149854 -0.625814,-0.209798 -0.354812,0.859173 -0.252847,1.128913 0.141089,0.378206 0.354821,0.856315 0.641186,1.141759 0.06283,0.06283 0.136896,0.118453 0.222106,0.135582 0.129915,0.0271 0.250054,-0.06565 0.315702,-0.174121 0.05449,-0.08991 0.07546,-0.196951 0.088,-0.301134 0.02376,-0.221218 0.0033,-0.446716 -0.05585,-0.663649 z" />
  <path
     style="fill:#ffffff;fill-opacity:1;stroke-width:0.0141197"
     id="path10-5"
     d="m 21.018995,23.020956 c -0.0033,0.626544 -0.377162,1.253084 -1.202741,1.253084 -0.825576,0 -1.209724,-0.616552 -1.209724,-1.245945 0,-0.784959 0.535019,-1.270207 1.226487,-1.270207 0.801836,0.0069 1.192963,0.615122 1.185978,1.263068 z m -1.185978,-0.867731 c -0.518255,0 -0.808812,0.368218 -0.811605,0.870586 0,0.436725 0.238869,0.846331 0.80183,0.846331 0.562953,0 0.77808,-0.44386 0.77808,-0.850608 0.0065,-0.422456 -0.212334,-0.856323 -0.768305,-0.866309 z m 1.532416,1.799696 c 0,0.09275 0.0033,-0.441006 0,-0.522359 h 0.379957 l 0.02652,0.326831 c 0.124323,0.07277 0.317098,0.127021 0.474947,0.127021 0.293355,0 0.599277,-0.07564 0.599277,-0.368217 -0.0097,-0.265457 -0.350623,-0.319694 -0.625817,-0.348237 -0.467968,-0.0485 -0.845135,-0.165555 -0.845135,-0.702184 0,-0.47811 0.529434,-0.716448 0.92336,-0.716448 0.317099,-0.0069 0.542001,0.04427 0.828371,0.278303 0,0.19267 -0.0033,0.306842 -0.0033,0.499516 h -0.367229 l -0.02372,-0.316838 c -0.148073,-0.07278 -0.300336,-0.09275 -0.417676,-0.0899 -0.252844,0.0033 -0.522449,0.124164 -0.522449,0.3411 0,0.21265 0.174615,0.271165 0.484732,0.316839 0.505681,0.0685 0.993203,0.185533 0.993203,0.736431 -0.0033,0.602276 -0.555968,0.760697 -1.030922,0.760697 -0.361801,0.0017 -0.5881,-0.06709 -0.874466,-0.322543 z"
     inkscape:connector-curvature="0" />
  <path
     style="fill:#ffffff;stroke-width:0.0141197"
     id="path12"
     d="m 18.09386,24.068523 c 0,0.109895 -0.08657,0.198378 -0.194171,0.198378 h -2.244834 c -0.107569,0 -0.194177,-0.08846 -0.194177,-0.198378 v -0.01715 c 0,-0.109893 0.08657,-0.198381 0.194177,-0.198381 h 2.244834 c 0.107565,0 0.194171,0.08847 0.194171,0.198381 z"
     inkscape:connector-curvature="0" />
</svg>
