<?xml version="1.0" encoding="UTF-8" standalone="no"?>
<svg
   xmlns:dc="http://purl.org/dc/elements/1.1/"
   xmlns:cc="http://creativecommons.org/ns#"
   xmlns:rdf="http://www.w3.org/1999/02/22-rdf-syntax-ns#"
   xmlns:svg="http://www.w3.org/2000/svg"
   xmlns="http://www.w3.org/2000/svg"
   xmlns:xlink="http://www.w3.org/1999/xlink"
   xmlns:sodipodi="http://sodipodi.sourceforge.net/DTD/sodipodi-0.dtd"
   xmlns:inkscape="http://www.inkscape.org/namespaces/inkscape"
   inkscape:version="1.0 (4035a4fb49, 2020-05-01)"
   sodipodi:docname="user-trash-full.svg"
   id="svg93"
   viewBox="0 0 64 64"
   version="1.1">
  <metadata
     id="metadata97">
    <rdf:RDF>
      <cc:Work
         rdf:about="">
        <dc:format>image/svg+xml</dc:format>
        <dc:type
           rdf:resource="http://purl.org/dc/dcmitype/StillImage" />
      </cc:Work>
    </rdf:RDF>
  </metadata>
  <sodipodi:namedview
     inkscape:document-rotation="0"
     inkscape:current-layer="svg93"
     inkscape:window-maximized="1"
     inkscape:window-y="0"
     inkscape:window-x="0"
     inkscape:cy="13.352883"
     inkscape:cx="58.561405"
     inkscape:zoom="6.2289233"
     showgrid="true"
     id="namedview95"
     inkscape:window-height="1017"
     inkscape:window-width="1920"
     inkscape:pageshadow="2"
     inkscape:pageopacity="0"
     guidetolerance="10"
     gridtolerance="10"
     objecttolerance="10"
     borderopacity="1"
     bordercolor="#666666"
     pagecolor="#ffffff">
    <inkscape:grid
       id="grid904"
       type="xygrid" />
  </sodipodi:namedview>
  <defs
     id="defs36">
    <linearGradient
       gradientUnits="userSpaceOnUse"
       gradientTransform="matrix(2,0,0,2,-769.142,-1031.596)"
       y2="522.79797"
       y1="517.79797"
       x2="399.57101"
       x1="394.57101"
       id="r">
      <stop
         id="stop2"
         offset="0"
         stop-color="#d4ba94" />
      <stop
         id="stop4"
         offset="1"
         stop-color="#bb9d71" />
    </linearGradient>
    <linearGradient
       gradientUnits="userSpaceOnUse"
       gradientTransform="matrix(2,0,0,1.8333333,-769.142,-942.62968)"
       y2="545.79797"
       y1="521.79797"
       x2="410.57101"
       x1="390.57101"
       id="s">
      <stop
         style="stop-color:#4e9fac;stop-opacity:1"
         id="stop7"
         offset="0"
         stop-color="#bdc3c7" />
      <stop
         id="stop9"
         offset="1"
         stop-color="#8a9696" />
    </linearGradient>
    <linearGradient
       gradientUnits="userSpaceOnUse"
       gradientTransform="matrix(.1681316 1.9929204 -1.9929204 .1681316 1025.8878 -851.8404)"
       y2="516.79797"
       y1="520.79797"
       x2="395.57101"
       x1="395.57101"
       id="f">
      <stop
         id="stop12"
         offset="0"
         stop-color="#afb0b3" />
      <stop
         id="stop14"
         offset="1"
         stop-color="#bdc3c7" />
    </linearGradient>
    <radialGradient
       gradientUnits="userSpaceOnUse"
       gradientTransform="matrix(.29423026 3.4876108 -2.9893806 .25219738 76.029512 -23.917134)"
       r="4"
       cy="8.5"
       cx="16"
       id="v">
      <stop
         id="stop17"
         offset="0"
         stop-opacity=".25"
         stop-color="#4f575f" />
      <stop
         id="stop19"
         offset="1"
         stop-color="#9da5ab" />
    </radialGradient>
    <linearGradient
       gradientUnits="userSpaceOnUse"
       gradientTransform="matrix(.1681316 1.9929204 -1.9929204 .1681316 1025.8878 -851.8404)"
       y2="520.79797"
       y1="522.79797"
       x2="412.57101"
       x1="412.57101"
       id="d">
      <stop
         id="stop22"
         offset="0"
         stop-color="#9da5ab" />
      <stop
         id="stop24"
         offset="1"
         stop-color="#bdc3c7" />
    </linearGradient>
    <linearGradient
       xlink:href="#a"
       gradientUnits="userSpaceOnUse"
       gradientTransform="matrix(1.33334,0,0,1.8,-498.094,-926.63634)"
       y2="534.79797"
       y1="534.79797"
       x2="394.57101"
       x1="391.57101"
       id="h" />
    <linearGradient
       xlink:href="#a"
       gradientUnits="userSpaceOnUse"
       gradientTransform="matrix(1.33334,0,0,1.7999999,-508.096,-926.63626)"
       y2="534.79797"
       y1="534.79797"
       x2="394.57101"
       x1="391.57101"
       id="j" />
    <linearGradient
       xlink:href="#a"
       gradientUnits="userSpaceOnUse"
       gradientTransform="matrix(1.33334,0,0,1.8,-486.096,-926.63634)"
       y2="534.79797"
       y1="534.79797"
       x2="394.57101"
       x1="391.57101"
       id="k" />
    <linearGradient
       xlink:href="#a"
       gradientUnits="userSpaceOnUse"
       gradientTransform="matrix(1.33334,0,0,1.8,-476.094,-926.63634)"
       y2="534.79797"
       y1="534.79797"
       x2="394.57101"
       x1="391.57101"
       id="q" />
    <radialGradient
       gradientUnits="userSpaceOnUse"
       gradientTransform="matrix(.62911132 7.4570672 -2.9893806 .25219744 63.81406 -121.1292)"
       r="4"
       cy="8.5"
       cx="20.571428"
       id="t">
      <stop
         id="stop31"
         offset="0"
         stop-opacity=".25098041"
         stop-color="#4f575f" />
      <stop
         id="stop33"
         offset="1"
         stop-color="#8a939a" />
    </radialGradient>
    <radialGradient
       gradientUnits="userSpaceOnUse"
       gradientTransform="matrix(0.62914934,7.4570641,-1.4946897,0.12610637,51.108517,-120.05735)"
       r="4"
       cy="8.5"
       cx="20.571428"
       id="l">
      <stop
         id="stop2-3"
         offset="0"
         stop-opacity=".25098041"
         stop-color="#4f575f" />
      <stop
         id="stop4-6"
         offset="1"
         stop-color="#8a939a" />
    </radialGradient>
    <radialGradient
       gradientUnits="userSpaceOnUse"
       gradientTransform="matrix(0.29424808,3.4876092,-2.9893793,0.25221264,76.029326,-23.917248)"
       r="4"
       cy="8.5"
       cx="16"
       id="b-7">
      <stop
         id="stop21"
         offset="0"
         stop-opacity=".25"
         stop-color="#4f575f" />
      <stop
         id="stop23"
         offset="1"
         stop-color="#9da5ab" />
    </radialGradient>
    <linearGradient
       gradientUnits="userSpaceOnUse"
       gradientTransform="matrix(0.16814176,1.9929196,-1.9929196,0.16814176,1025.8833,-851.84537)"
       y2="516.79797"
       y1="520.79797"
       x2="395.57101"
       x1="395.57101"
       id="e-5">
      <stop
         id="stop31-3"
         offset="0"
         stop-color="#afb0b3" />
      <stop
         id="stop33-5"
         offset="1"
         stop-color="#bdc3c7" />
    </linearGradient>
    <linearGradient
       gradientUnits="userSpaceOnUse"
       gradientTransform="matrix(0.16814176,1.9929196,-1.9929196,0.16814176,1025.8833,-851.84537)"
       y2="520.79797"
       y1="522.79797"
       x2="412.57101"
       x1="412.57101"
       id="c-6">
      <stop
         id="stop26"
         offset="0"
         stop-color="#9da5ab" />
      <stop
         id="stop28"
         offset="1"
         stop-color="#bdc3c7" />
    </linearGradient>
  </defs>
  <linearGradient
     xlink:href="#b"
     gradientUnits="userSpaceOnUse"
     gradientTransform="matrix(2,0,0,2,-769.142,-1029.596)"
     y2="524.29797"
     y1="521.79797"
     x2="396.07101"
     x1="393.57101"
     id="u" />
  <linearGradient
     id="b">
    <stop
       id="stop39"
       offset="0"
       stop-color="#fcfcfc" />
    <stop
       id="stop41"
       offset="1"
       stop-color="#eff0f1" />
  </linearGradient>
  <linearGradient
     xlink:href="#c"
     gradientUnits="userSpaceOnUse"
     gradientTransform="matrix(2,0,0,2,-769.142,-1029.596)"
     y2="523.79797"
     y1="521.79797"
     x2="400.57101"
     x1="399.57101"
     id="e" />
  <linearGradient
     id="c">
    <stop
       id="stop45"
       offset="0"
       stop-color="#292c2f" />
    <stop
       id="stop47"
       offset="1"
       stop-opacity="0"
       stop-color="#292c2f" />
  </linearGradient>
  <linearGradient
     xlink:href="#b"
     gradientUnits="userSpaceOnUse"
     gradientTransform="matrix(-2,0,0,2,849.144,-1029.596)"
     y2="525.79797"
     y1="521.79797"
     x2="405.57101"
     x1="409.57101"
     id="g" />
  <linearGradient
     xlink:href="#c"
     gradientUnits="userSpaceOnUse"
     gradientTransform="matrix(2,0,0,2,-769.142,-1029.596)"
     y2="523.79797"
     y1="521.79797"
     x2="408.57101"
     x1="407.57101"
     id="i" />
  <linearGradient
     id="a">
    <stop
       id="stop52"
       offset="0"
       stop-opacity=".4"
       stop-color="#4f575f" />
    <stop
       id="stop54"
       offset=".5"
       stop-opacity=".6"
       stop-color="#4f575f" />
    <stop
       id="stop56"
       offset="1"
       stop-opacity=".4"
       stop-color="#4f575f" />
  </linearGradient>
  <path
     inkscape:connector-curvature="0"
     style="fill:#4e9fac;fill-opacity:1;stroke-width:2"
     id="path59"
     d="m 43,7 -14,6 -6,-6 -8,6 v 2 l 6,16 28,-18 z" />
  <path
     inkscape:connector-curvature="0"
     style="fill:url(#s);stroke-width:1.91485417"
     id="path61"
     d="M 12,14 V 56.166668 C 12,57.182332 12.892,58 14,58 h 36 c 1.108,0 2,-0.817668 2,-1.833332 V 14 Z" />
  <path
     d="m 26.00002,18 c 1.108,0 2,0.8028 2,1.8 v 32.4 c 0,0.9972 -0.892,1.8 -2,1.8 -1.108,0 -2,-0.8028 -2,-1.8 V 19.8 c 0,-0.9972 0.892,-1.8 2,-1.8 z"
     id="path63"
     style="fill:#008864;stroke-width:1.89736652;fill-opacity:1"
     inkscape:connector-curvature="0" />
  <path
     d="m 16.00002,18 c 1.108,0 2,0.8028 2,1.8 v 32.4 c 0,0.9972 -0.892,1.8 -2,1.8 -1.108,0 -2,-0.8028 -2,-1.8 V 19.8 c 0,-0.9972 0.892,-1.8 2,-1.8 z"
     id="path65"
     style="fill:#008864;stroke-width:1.89736652;fill-opacity:1"
     inkscape:connector-curvature="0" />
  <path
     d="m 38.00002,18 c 1.108,0 2,0.8028 2,1.8 v 32.4 c 0,0.9972 -0.892,1.8 -2,1.8 -1.108,0 -2,-0.8028 -2,-1.8 V 19.8 c 0,-0.9972 0.892,-1.8 2,-1.8 z"
     id="path67"
     style="fill:#008864;stroke-width:1.89736652;fill-opacity:1"
     inkscape:connector-curvature="0" />
  <path
     d="m 48.00002,18 c 1.108,0 2,0.8028 2,1.8 v 32.4 c 0,0.9972 -0.892,1.8 -2,1.8 -1.108,0 -2,-0.8028 -2,-1.8 V 19.8 c 0,-0.9972 0.892,-1.8 2,-1.8 z"
     id="path69"
     style="fill:#008864;stroke-width:1.89736652;fill-opacity:1"
     inkscape:connector-curvature="0" />
  <path
     d="M 26,30 38,22 30,14 H 18 Z"
     id="path73"
     style="opacity:0.2;fill:url(#e);stroke-width:2"
     inkscape:connector-curvature="0" />
  <path
     d="m 18,14 4,8 12,-4 -4,-4 z"
     id="path75"
     style="fill:url(#u);stroke-width:2"
     inkscape:connector-curvature="0" />
  <path
     d="m 46,14 -8,8 -8,-8 z"
     id="path77"
     style="fill:url(#g);stroke-width:2"
     inkscape:connector-curvature="0" />
  <path
     d="M 38,22 52,36 V 14 h -6 z"
     id="path79"
     style="opacity:0.2;fill:url(#i);stroke-width:2"
     inkscape:connector-curvature="0" />
  <path
     id="path91"
     stroke-width="1.9148542"
     opacity=".2"
     d="m12 55.166016v1c0 1.015664 0.892 1.833984 2 1.833984h36c1.108 0 2-0.81832 2-1.833984v-1c0 1.015664-0.892 1.833984-2 1.833984h-36c-1.108 0-2-0.81832-2-1.833984z" />
  <path
     id="path51"
     d="m 53.478012,12.106192 c -0.09315,-1.104078 -1.056984,-1.917929 -2.161061,-1.824778 l -1.99292,0.168142 4.035402,47.830069 1.99292,-0.168142 c 1.104077,-0.09315 1.917928,-1.056984 1.824778,-2.161061 z"
     style="fill:#4e9fac;fill-opacity:1"
     inkscape:connector-curvature="0" />
  <path
     sodipodi:nodetypes="ssccccccccsss"
     style="fill:#4e9fac;fill-opacity:1"
     inkscape:connector-curvature="0"
     id="path47"
     d="m 60.633763,25.552203 c -0.09315,-1.104077 -1.056984,-1.917928 -2.161061,-1.824777 l -3.98584,0.336283 0.336284,3.985839 1.49469,-0.126106 c 0.262408,-0.02275 0.497468,0.161968 0.537407,0.422315 l 0.930664,11.030809 c 0.0032,0.262656 -0.19742,0.48299 -0.459221,0.504393 l -1.494689,0.126107 0.336283,3.985839 3.985839,-0.336284 c 1.104078,-0.09315 1.917928,-1.056984 1.824778,-2.161061 z" />
  <path
     sodipodi:nodetypes="ssccccccccsss"
     style="fill:url(#b-7)"
     inkscape:connector-curvature="0"
     id="path49"
     d="m 57.812525,27.797336 c -0.04658,-0.552039 -0.528492,-0.958965 -1.08053,-0.912389 l -1.99292,0.168141 0.08407,0.99646 1.49469,-0.126106 c 0.262408,-0.02275 0.497468,0.161968 0.537407,0.422315 l 0.930664,11.030809 c 0.0032,0.262656 -0.19742,0.48299 -0.459221,0.504393 l -1.494689,0.126107 0.08407,0.996459 1.99292,-0.168141 c 0.552039,-0.04658 0.958964,-0.528492 0.912389,-1.080531 z" />
  <path
     inkscape:connector-curvature="0"
     style="fill:url(#l);stroke-width:1.41266239"
     id="path67-2"
     d="m 49.324031,10.449556 4.035402,47.830069 0.99646,-0.08407 -4.026555,-47.725206 z" />
</svg>
